<svg width="860" height="600" viewBox="0 0 860 600" fill="none" xmlns="http://www.w3.org/2000/svg">
<g clip-path="url(#clip0)">
<path d="M0.292952 51.9645C3.08848 75.7046 22.6947 94.503 27.3464 117.95C27.9295 121.024 28.2862 124.137 28.4135 127.263C29.0824 140.729 26.4146 154.473 27.7898 167.962C30.3524 193.256 45.7353 213.023 65.2664 230.155C80.0406 243.08 97.1895 254.45 112.963 265.453C153.123 293.489 190.787 328.885 207.282 374.984C218.276 405.724 219.118 439.129 227.189 470.763C235.26 502.396 253.641 534.766 284.708 544.852C318.051 555.682 354.791 537.627 389.104 544.762C425.927 552.423 452.041 587.203 488.375 597.027C534.539 609.509 580.545 578.837 627.934 572.445C650.689 569.374 673.849 571.98 696.725 570.012C722.189 567.799 746.846 559.97 768.92 547.09C776.435 542.682 784.032 537.267 787.527 529.261C790.533 522.344 790.074 514.458 789.15 506.97C785.693 479.182 776.946 448.976 790.705 424.552C803.398 402.021 834.156 385.904 829.595 360.466C826.852 345.153 811.792 335.592 797.83 328.735C769.033 314.593 738.357 303.523 712.619 284.424C694.207 270.74 678.351 251.649 671.587 230.177C668.814 221.592 667.672 212.565 668.221 203.56C669.168 189.366 674.082 173.429 665.515 162.066C661.803 157.139 656.114 154.112 650.396 151.799C628.828 143.087 604.871 142.584 582.446 136.396C574.758 134.298 567.369 131.229 560.458 127.263C546.781 119.347 535.771 107.684 533.111 92.4602C531.556 83.5379 532.938 73.797 528.482 65.9112C520.967 52.5428 506.11 46.9551 489.518 45.1376C468.979 42.8845 445.721 46.4068 430.15 48.1417L428.595 48.307C408.598 50.3873 388.766 45.9637 369.28 39.2946C348.238 32.1522 327.67 22.4339 307.658 15.5244C305.779 14.8735 303.906 14.2501 302.037 13.6543C287.428 9.00193 272.471 5.52359 257.309 3.25249C235.924 0.0356621 214.249 -0.800594 192.681 0.759062C181.742 1.54674 170.858 2.96101 160.081 4.99489C156.915 5.59571 153.754 6.2391 150.598 6.92504C132.246 10.8529 113.993 15.652 95.2732 15.9374C93.928 15.9374 92.5754 15.9374 91.2302 15.9374C68.9036 15.5544 46.0734 9.88411 24.8891 16.7335C15.255 19.8653 6.01927 26.0238 2.14161 35.3667C-0.0151576 40.5713 -0.36084 46.3768 0.292952 51.9645Z" fill="#6C63FF"/>
<path opacity="0.2" d="M28.4141 127.262H47.7047C47.9925 122.278 49.7362 117.487 52.7201 113.482C55.7039 109.478 59.797 106.435 64.4929 104.731C60.9874 102.803 58.2233 99.7635 56.6358 96.0925C55.0482 92.4214 54.7274 88.3269 55.7237 84.4536C56.7201 80.5803 58.9771 77.1482 62.1394 74.6975C65.3017 72.2468 69.1897 70.9168 73.1914 70.9168C77.193 70.9168 81.081 72.2468 84.2434 74.6975C87.4057 77.1482 89.6627 80.5803 90.659 84.4536C91.6554 88.3269 91.3345 92.4214 89.747 96.0925C88.1594 99.7635 85.3953 102.803 81.8898 104.731C86.5858 106.435 90.6788 109.478 93.6627 113.482C96.6465 117.487 98.3902 122.278 98.678 127.262H98.8433C99.2677 122.415 101.069 117.79 104.035 113.931C107.002 110.073 111.009 107.141 115.586 105.483C112.922 104.017 110.672 101.902 109.046 99.3338C107.419 96.7659 106.468 93.8286 106.282 90.795C106.096 87.7614 106.681 84.7301 107.981 81.9828C109.282 79.2356 111.257 76.8617 113.722 75.0818C116.187 73.3019 119.062 72.1738 122.081 71.8025C125.099 71.4311 128.162 71.8286 130.986 72.9579C133.809 74.0872 136.301 75.9116 138.229 78.2615C140.158 80.6115 141.461 83.4107 142.016 86.3988C144.226 84.5962 146.723 83.1771 149.403 82.2005C145.898 80.2717 143.134 77.2325 141.546 73.5615C139.959 69.8904 139.638 65.796 140.634 61.9227C141.63 58.0494 143.887 54.6172 147.05 52.1665C150.212 49.7158 154.1 48.3858 158.102 48.3858C162.103 48.3858 165.991 49.7158 169.154 52.1665C172.316 54.6172 174.573 58.0494 175.569 61.9227C176.566 65.796 176.245 69.8904 174.657 73.5615C173.07 77.2325 170.306 80.2717 166.8 82.2005C171.74 83.989 176.009 87.2561 179.024 91.5568C182.039 95.8574 183.654 100.982 183.648 106.234V127.262H191.915V110.74C191.91 105.489 193.525 100.364 196.54 96.0629C199.555 91.7623 203.823 88.4952 208.763 86.7067C205.258 84.7779 202.494 81.7387 200.906 78.0677C199.318 74.3966 198.998 70.3022 199.994 66.4289C200.99 62.5556 203.247 59.1234 206.41 56.6727C209.572 54.222 213.46 52.892 217.462 52.892C221.463 52.892 225.351 54.222 228.514 56.6727C231.676 59.1234 233.933 62.5556 234.929 66.4289C235.926 70.3022 235.605 74.3966 234.017 78.0677C232.43 81.7387 229.666 84.7779 226.16 86.7067C229.427 87.8958 232.417 89.7368 234.949 92.1177C237.482 94.4986 239.502 97.3695 240.889 100.556C243.912 96.2614 248.183 92.9998 253.123 91.2129C249.618 89.2841 246.854 86.2449 245.266 82.5739C243.679 78.9028 243.358 74.8083 244.354 70.935C245.35 67.0618 247.607 63.6296 250.77 61.1789C253.932 58.7282 257.82 57.3982 261.822 57.3982C265.823 57.3982 269.711 58.7282 272.874 61.1789C276.036 63.6296 278.293 67.0618 279.289 70.935C280.286 74.8083 279.965 78.9028 278.377 82.5739C276.79 86.2449 274.026 89.2841 270.52 91.2129C275.967 93.1936 280.582 96.9609 283.611 101.9V98.7232C283.606 93.4721 285.221 88.3471 288.236 84.0464C291.251 79.7458 295.519 76.4787 300.459 74.6902C296.954 72.7614 294.19 69.7222 292.602 66.0512C291.015 62.3801 290.694 58.2856 291.69 54.4123C292.687 50.539 294.944 47.1069 298.106 44.6562C301.268 42.2055 305.156 40.8755 309.158 40.8755C313.16 40.8755 317.048 42.2055 320.21 44.6562C323.372 47.1069 325.629 50.539 326.625 54.4123C327.622 58.2856 327.301 62.3801 325.713 66.0512C324.126 69.7222 321.362 72.7614 317.856 74.6902C322.796 76.4787 327.065 79.7458 330.08 84.0464C333.095 88.3471 334.71 93.4721 334.705 98.7232V127.262H343.722C345.127 124.152 347.14 121.354 349.642 119.033C352.145 116.711 355.086 114.913 358.294 113.744C354.788 111.815 352.024 108.776 350.437 105.105C348.849 101.434 348.528 97.3393 349.525 93.466C350.521 89.5927 352.778 86.1606 355.94 83.7099C359.103 81.2592 362.991 79.9292 366.992 79.9292C370.994 79.9292 374.882 81.2592 378.044 83.7099C381.206 86.1606 383.463 89.5927 384.46 93.466C385.456 97.3393 385.135 101.434 383.548 105.105C381.96 108.776 379.196 111.815 375.691 113.744C377.472 114.391 379.176 115.235 380.771 116.26C381.405 111.645 383.291 107.292 386.224 103.671C389.157 100.05 393.024 97.3006 397.409 95.7191C393.903 93.7903 391.139 90.7511 389.551 87.0801C387.964 83.409 387.643 79.3145 388.639 75.4412C389.636 71.5679 391.893 68.1358 395.055 65.6851C398.217 63.2344 402.105 61.9044 406.107 61.9044C410.109 61.9044 413.997 63.2344 417.159 65.6851C420.321 68.1358 422.578 71.5679 423.575 75.4412C424.571 79.3145 424.25 83.409 422.663 87.0801C421.075 90.7511 418.311 93.7903 414.805 95.7191C418.57 97.0932 421.959 99.3313 424.7 102.253C427.441 105.175 429.457 108.699 430.587 112.542C433.407 109.362 436.976 106.935 440.972 105.483C437.467 103.554 434.703 100.515 433.115 96.8435C431.527 93.1724 431.207 89.078 432.203 85.2047C433.199 81.3314 435.456 77.8992 438.619 75.4485C441.781 72.9979 445.669 71.6678 449.671 71.6678C453.672 71.6678 457.56 72.9979 460.723 75.4485C463.885 77.8992 466.142 81.3314 467.138 85.2047C468.135 89.078 467.814 93.1724 466.226 96.8435C464.639 100.515 461.875 103.554 458.369 105.483C461.126 106.488 463.689 107.962 465.944 109.839C467.317 106.588 469.347 103.655 471.908 101.226C474.468 98.7958 477.504 96.9211 480.823 95.7191C477.318 93.7903 474.554 90.7511 472.966 87.0801C471.379 83.409 471.058 79.3145 472.054 75.4412C473.051 71.5679 475.308 68.1358 478.47 65.6851C481.632 63.2344 485.52 61.9044 489.522 61.9044C493.524 61.9044 497.412 63.2344 500.574 65.6851C503.736 68.1358 505.993 71.5679 506.99 75.4412C507.986 79.3145 507.665 83.409 506.077 87.0801C504.49 90.7511 501.726 93.7903 498.22 95.7191C503.161 97.5076 507.429 100.775 510.444 105.075C513.459 109.376 515.074 114.501 515.069 119.752V127.262H560.458C567.368 131.225 574.754 134.292 582.439 136.388C604.864 142.576 628.821 143.079 650.389 151.791C656.107 154.104 661.796 157.131 665.509 162.058C674.075 173.421 669.161 189.358 668.214 203.552C667.66 212.55 668.794 221.573 671.558 230.154H65.267C45.7283 213.06 30.3529 193.256 27.7904 167.961C26.4527 154.48 29.0829 140.736 28.4141 127.262Z" fill="black"/>
<path d="M746.901 57.8069V349.2L731.872 339.437V57.8069H722.854L719.097 329.673L704.818 319.159L714.588 54.0518" stroke="#E0E0E0" stroke-miterlimit="10"/>
<path d="M765.696 78.8359L704.826 82.2156" stroke="#E0E0E0" stroke-miterlimit="10"/>
<path d="M761.939 93.8564L704.826 96.1095" stroke="#E0E0E0" stroke-miterlimit="10"/>
<path d="M761.939 111.881L704.826 113.383" stroke="#E0E0E0" stroke-miterlimit="10"/>
<path d="M761.939 128.404L704.826 130.657" stroke="#E0E0E0" stroke-miterlimit="10"/>
<path d="M761.939 147.18H702.571" stroke="#E0E0E0" stroke-miterlimit="10"/>
<path d="M761.939 165.956L701.068 163.703" stroke="#E0E0E0" stroke-miterlimit="10"/>
<path d="M761.939 183.229L701.068 180.225" stroke="#E0E0E0" stroke-miterlimit="10"/>
<path d="M761.939 202.005L701.068 197.499" stroke="#E0E0E0" stroke-miterlimit="10"/>
<path d="M763.441 218.528L698.813 212.52" stroke="#E0E0E0" stroke-miterlimit="10"/>
<path d="M763.441 237.303L698.813 227.54" stroke="#E0E0E0" stroke-miterlimit="10"/>
<path d="M763.442 259.083L696.56 247.067" stroke="#E0E0E0" stroke-miterlimit="10"/>
<path d="M763.442 283.868L696.56 264.341" stroke="#E0E0E0" stroke-miterlimit="10"/>
<path d="M764.944 309.403L694.305 281.615" stroke="#E0E0E0" stroke-miterlimit="10"/>
<path d="M764.944 332.685L694.305 298.137" stroke="#E0E0E0" stroke-miterlimit="10"/>
<path d="M688.286 57.0559L676.262 313.151H660.481L670.25 57.0559H652.966L641.694 313.151H624.41L634.179 57.0559H613.137L605.622 313.151H586.835L595.102 59.309H575.563L571.054 313.151H553.77L559.03 57.0559H541.746L537.989 313.151H521.456L525.213 57.0559H505.675V313.151H486.136V57.0559H468.101L471.107 313.151H455.325L450.816 57.0559H432.781L438.793 313.151H423.011L415.497 57.0559H399.715L405.727 313.151H391.449L380.177 57.0559H365.147L377.171 313.151H362.141L345.608 57.0559H327.573L348.614 313.151H334.336L314.046 57.0559H299.768L320.809 313.151H305.028L284.738 54.0518H270.46L293.756 313.151H278.726L254.679 54.0518" stroke="#E0E0E0" stroke-miterlimit="10"/>
<path d="M220.861 57.8069L243.406 317.657L232.134 326.669L214.85 57.8069H202.826L214.85 336.433L197.565 347.698L190.81 54.0518" stroke="#E0E0E0" stroke-miterlimit="10"/>
<path d="M174.277 87.0972H243.414" stroke="#E0E0E0" stroke-miterlimit="10"/>
<path d="M174.277 105.873H243.414" stroke="#E0E0E0" stroke-miterlimit="10"/>
<path d="M174.277 126.902L243.414 124.649" stroke="#E0E0E0" stroke-miterlimit="10"/>
<path d="M174.277 144.927L246.42 141.171" stroke="#E0E0E0" stroke-miterlimit="10"/>
<path d="M174.277 165.204L246.42 162.2" stroke="#E0E0E0" stroke-miterlimit="10"/>
<path d="M174.277 186.985L249.426 183.229" stroke="#E0E0E0" stroke-miterlimit="10"/>
<path d="M174.277 208.013L249.426 200.503" stroke="#E0E0E0" stroke-miterlimit="10"/>
<path d="M174.277 232.046L249.426 214.021" stroke="#E0E0E0" stroke-miterlimit="10"/>
<path d="M174.277 253.075L252.432 226.789" stroke="#E0E0E0" stroke-miterlimit="10"/>
<path d="M174.277 274.855L252.432 244.814" stroke="#E0E0E0" stroke-miterlimit="10"/>
<path d="M172.022 295.884L249.824 263.252" stroke="#E0E0E0" stroke-miterlimit="10"/>
<path d="M172.022 319.917L252.431 279.361" stroke="#E0E0E0" stroke-miterlimit="10"/>
<path d="M172.022 341.697L254.686 295.884" stroke="#E0E0E0" stroke-miterlimit="10"/>
<path d="M704.826 78.8359L243.414 82.5911" stroke="#E0E0E0" stroke-miterlimit="10"/>
<path d="M704.45 92.3545L243.038 96.1096" stroke="#E0E0E0" stroke-miterlimit="10"/>
<path d="M704.074 105.873L242.662 109.628" stroke="#E0E0E0" stroke-miterlimit="10"/>
<path d="M703.698 119.392L242.286 123.147" stroke="#E0E0E0" stroke-miterlimit="10"/>
<path d="M703.323 132.91L241.911 136.665" stroke="#E0E0E0" stroke-miterlimit="10"/>
<path d="M702.947 146.429L247.547 150.184" stroke="#E0E0E0" stroke-miterlimit="10"/>
<path d="M702.571 159.947L247.171 163.702" stroke="#E0E0E0" stroke-miterlimit="10"/>
<path d="M702.195 173.466L246.795 177.221" stroke="#E0E0E0" stroke-miterlimit="10"/>
<path d="M701.82 186.984L246.42 190.74" stroke="#E0E0E0" stroke-miterlimit="10"/>
<path d="M701.444 200.503L250.553 204.258" stroke="#E0E0E0" stroke-miterlimit="10"/>
<path d="M701.068 214.021L250.177 217.777" stroke="#E0E0E0" stroke-miterlimit="10"/>
<path d="M700.692 227.54L249.801 231.295" stroke="#E0E0E0" stroke-miterlimit="10"/>
<path d="M700.317 241.059L252.432 244.814" stroke="#E0E0E0" stroke-miterlimit="10"/>
<path d="M699.941 254.578L252.056 258.333" stroke="#E0E0E0" stroke-miterlimit="10"/>
<path d="M699.565 268.096L253.935 271.851" stroke="#E0E0E0" stroke-miterlimit="10"/>
<path d="M699.19 281.615L253.559 285.37" stroke="#E0E0E0" stroke-miterlimit="10"/>
<path d="M698.814 295.133L253.183 298.889" stroke="#E0E0E0" stroke-miterlimit="10"/>
<path d="M764.937 361.967L696.552 313.15H252.424L174.277 361.967" stroke="#E0E0E0" stroke-width="3" stroke-miterlimit="10"/>
<path d="M769.183 309.148C769.183 309.148 770.919 257.882 798.663 228.93C810.384 216.856 817.867 201.307 819.991 184.619C820.938 176.692 821.157 168.695 820.644 160.729" stroke="#535461" stroke-width="2" stroke-miterlimit="10"/>
<path d="M838.019 142.381C836.118 148.104 820.247 161.262 820.247 161.262C820.247 161.262 815.384 141.224 817.286 135.501C818.227 132.79 820.199 130.558 822.774 129.289C825.349 128.019 828.321 127.813 831.047 128.716C833.772 129.619 836.033 131.559 837.339 134.114C838.645 136.67 838.892 139.637 838.027 142.373L838.019 142.381Z" fill="#6C63FF"/>
<path d="M844.64 179.767C839.936 183.522 819.45 185.963 819.45 185.963C819.45 185.963 826.266 166.504 830.97 162.734C832.085 161.8 833.376 161.098 834.766 160.67C836.156 160.241 837.617 160.094 839.065 160.237C840.512 160.381 841.916 160.811 843.195 161.504C844.474 162.197 845.601 163.138 846.512 164.272C847.422 165.406 848.096 166.71 848.495 168.108C848.894 169.506 849.01 170.97 848.836 172.413C848.661 173.856 848.2 175.25 847.48 176.513C846.759 177.776 845.794 178.882 844.64 179.767V179.767Z" fill="#6C63FF"/>
<path d="M825.912 233.699C819.945 234.578 801.038 226.339 801.038 226.339C801.038 226.339 816.752 212.978 822.718 212.069C825.551 211.717 828.409 212.487 830.681 214.214C832.953 215.941 834.459 218.487 834.876 221.31C835.294 224.132 834.589 227.005 832.914 229.315C831.239 231.624 828.726 233.187 825.912 233.669V233.699Z" fill="#6C63FF"/>
<path d="M802.549 271.311C796.815 273.188 776.788 268.254 776.788 268.254C776.788 268.254 790.014 252.437 795.748 250.552C797.12 250.073 798.573 249.872 800.023 249.962C801.474 250.051 802.892 250.428 804.194 251.071C805.497 251.715 806.658 252.611 807.609 253.709C808.561 254.806 809.284 256.082 809.736 257.462C810.189 258.842 810.361 260.298 810.243 261.745C810.126 263.193 809.72 264.602 809.051 265.891C808.382 267.18 807.462 268.322 806.346 269.252C805.229 270.181 803.938 270.878 802.549 271.303V271.311Z" fill="#6C63FF"/>
<path d="M797.303 179.835C800.091 185.182 817.856 195.659 817.856 195.659C817.856 195.659 819.472 175.111 816.692 169.756C816.029 168.484 815.123 167.354 814.024 166.432C812.925 165.51 811.655 164.813 810.287 164.382C808.918 163.95 807.478 163.792 806.049 163.916C804.619 164.041 803.228 164.446 801.955 165.107C800.682 165.769 799.552 166.675 798.629 167.773C797.706 168.872 797.009 170.141 796.577 171.508C796.145 172.876 795.987 174.315 796.112 175.744C796.236 177.173 796.641 178.563 797.303 179.835V179.835Z" fill="#6C63FF"/>
<path d="M770.544 224.191C774.804 228.464 794.892 233.143 794.892 233.143C794.892 233.143 790.285 213.053 786.024 208.78C783.968 206.782 781.209 205.672 778.341 205.689C775.473 205.706 772.728 206.85 770.696 208.872C768.664 210.895 767.51 213.635 767.481 216.5C767.453 219.366 768.552 222.128 770.544 224.191V224.191Z" fill="#6C63FF"/>
<path d="M750.448 270.852C753.92 275.779 772.933 283.785 772.933 283.785C772.933 283.785 771.791 263.199 768.311 258.25C767.491 257.063 766.443 256.051 765.229 255.271C764.014 254.491 762.658 253.96 761.237 253.707C759.816 253.454 758.359 253.485 756.95 253.799C755.541 254.112 754.208 254.701 753.028 255.532C751.848 256.363 750.845 257.419 750.076 258.639C749.307 259.86 748.787 261.221 748.547 262.643C748.308 264.066 748.352 265.522 748.678 266.927C749.005 268.332 749.606 269.658 750.448 270.83V270.852Z" fill="#6C63FF"/>
<path d="M780.455 354.96C780.455 354.96 782.191 303.695 809.936 274.743C821.656 262.668 829.14 247.12 831.263 230.432C832.211 222.505 832.429 214.508 831.917 206.542" stroke="#535461" stroke-width="2" stroke-miterlimit="10"/>
<path d="M849.292 188.194C847.39 193.917 831.519 207.075 831.519 207.075C831.519 207.075 826.657 187.037 828.558 181.314C829.5 178.603 831.471 176.371 834.046 175.102C836.622 173.832 839.594 173.626 842.319 174.529C845.045 175.432 847.305 177.372 848.612 179.927C849.918 182.483 850.165 185.45 849.299 188.186L849.292 188.194Z" fill="#6C63FF"/>
<path d="M855.912 225.58C851.208 229.335 830.723 231.776 830.723 231.776C830.723 231.776 837.539 212.317 842.243 208.547C843.358 207.613 844.648 206.911 846.038 206.483C847.428 206.054 848.89 205.907 850.337 206.05C851.785 206.193 853.189 206.624 854.468 207.317C855.747 208.01 856.874 208.951 857.784 210.085C858.694 211.219 859.369 212.523 859.768 213.921C860.167 215.319 860.282 216.783 860.108 218.226C859.934 219.669 859.473 221.063 858.752 222.326C858.032 223.589 857.066 224.695 855.912 225.58V225.58Z" fill="#6C63FF"/>
<path d="M837.185 279.512C831.218 280.391 812.311 272.152 812.311 272.152C812.311 272.152 828.024 258.791 833.991 257.882C836.824 257.53 839.682 258.3 841.954 260.027C844.226 261.754 845.731 264.3 846.149 267.123C846.566 269.945 845.862 272.818 844.186 275.128C842.511 277.437 839.998 279 837.185 279.482V279.512Z" fill="#6C63FF"/>
<path d="M813.821 317.124C808.088 319.001 788.061 314.067 788.061 314.067C788.061 314.067 801.287 298.25 807.02 296.365C808.392 295.886 809.846 295.685 811.296 295.774C812.746 295.864 814.164 296.241 815.467 296.884C816.769 297.528 817.93 298.424 818.882 299.522C819.834 300.619 820.557 301.895 821.009 303.275C821.461 304.655 821.633 306.111 821.516 307.558C821.398 309.006 820.993 310.415 820.324 311.704C819.654 312.993 818.734 314.135 817.618 315.065C816.502 315.994 815.211 316.691 813.821 317.116V317.124Z" fill="#6C63FF"/>
<path d="M808.576 225.648C811.364 230.995 829.129 241.472 829.129 241.472C829.129 241.472 830.745 220.924 827.964 215.569C826.627 213 824.323 211.066 821.559 210.195C818.796 209.323 815.799 209.584 813.227 210.92C810.656 212.257 808.722 214.559 807.85 217.321C806.977 220.083 807.238 223.079 808.576 225.648V225.648Z" fill="#6C63FF"/>
<path d="M781.815 270.004C786.076 274.277 806.163 278.956 806.163 278.956C806.163 278.956 801.557 258.866 797.296 254.593C795.24 252.595 792.48 251.485 789.613 251.502C786.745 251.519 783.999 252.663 781.967 254.685C779.936 256.708 778.781 259.448 778.752 262.313C778.724 265.179 779.824 267.941 781.815 270.004V270.004Z" fill="#6C63FF"/>
<path d="M761.721 316.665C765.193 321.592 784.205 329.598 784.205 329.598C784.205 329.598 783.063 309.012 779.584 304.063C778.763 302.876 777.715 301.864 776.501 301.084C775.287 300.304 773.93 299.773 772.509 299.52C771.088 299.267 769.631 299.298 768.222 299.612C766.813 299.925 765.48 300.514 764.301 301.345C763.121 302.176 762.117 303.232 761.348 304.452C760.579 305.673 760.06 307.034 759.82 308.456C759.58 309.879 759.624 311.335 759.951 312.74C760.277 314.145 760.879 315.471 761.721 316.643V316.665Z" fill="#6C63FF"/>
<path d="M163.373 80.9614C163.741 66.4289 173.811 53.6613 188.021 50.5445L188.427 50.4619C189.001 50.3476 189.585 50.2922 190.17 50.2967H752.582C756.736 50.2629 760.828 51.305 764.458 53.3214C768.089 55.3377 771.136 58.2597 773.301 61.8025L773.443 62.0504C774.27 63.5001 774.715 65.1359 774.736 66.8044L779.959 361.96H761.923L755.911 73.5637C755.911 73.5637 755.911 65.3023 748.396 64.5513C747.247 64.4386 733.299 64.356 710.514 64.3035L697.303 313.902H689.788L704.48 64.296C604.307 64.1007 359.119 64.3485 245.322 64.4837L259.916 312.4H252.401L239.295 64.4912L195.979 64.5438C192.803 64.5458 189.683 65.3788 186.929 66.9599C184.175 68.541 181.883 70.8152 180.281 73.5562L174.269 361.953H156.233L163.373 80.9614Z" fill="#E0E0E0"/>
<path d="M156.136 368.043C156.136 368.043 153.701 328.344 172.992 303.95C181.149 293.771 185.782 281.221 186.195 268.186C186.341 261.992 185.919 255.798 184.933 249.681" stroke="#535461" stroke-width="2" stroke-miterlimit="10"/>
<path d="M197.002 234.254C195.958 238.813 184.67 250.139 184.67 250.139C184.67 250.139 179.41 235.028 180.485 230.477C180.731 229.392 181.189 228.366 181.833 227.458C182.476 226.55 183.292 225.778 184.234 225.185C185.176 224.592 186.226 224.191 187.323 224.003C188.421 223.816 189.544 223.846 190.63 224.093C191.715 224.34 192.742 224.797 193.65 225.44C194.559 226.083 195.331 226.899 195.925 227.84C196.518 228.782 196.92 229.831 197.107 230.928C197.294 232.024 197.264 233.147 197.017 234.232L197.002 234.254Z" fill="#6C63FF"/>
<path d="M204.862 262.628C201.503 265.888 185.872 269.267 185.872 269.267C185.872 269.267 189.697 253.743 193.056 250.492C193.854 249.717 194.797 249.107 195.831 248.696C196.864 248.286 197.969 248.082 199.081 248.099C200.194 248.115 201.292 248.349 202.314 248.79C203.335 249.23 204.26 249.867 205.035 250.664C205.81 251.462 206.421 252.404 206.831 253.437C207.242 254.47 207.445 255.574 207.429 256.686C207.413 257.797 207.178 258.895 206.738 259.916C206.297 260.937 205.66 261.861 204.862 262.636V262.628Z" fill="#6C63FF"/>
<path d="M194.379 305.633C189.87 306.752 174.638 301.78 174.638 301.78C174.638 301.78 185.767 290.312 190.321 289.193C192.503 288.655 194.808 289.005 196.731 290.166C198.654 291.328 200.037 293.205 200.575 295.385C201.113 297.565 200.763 299.87 199.601 301.791C198.439 303.713 196.561 305.095 194.379 305.633Z" fill="#6C63FF"/>
<path d="M179.109 336.388C174.818 338.258 158.999 335.922 158.999 335.922C158.999 335.922 168.017 322.734 172.33 320.902C173.354 320.431 174.461 320.169 175.588 320.131C176.714 320.093 177.836 320.28 178.889 320.681C179.942 321.083 180.905 321.69 181.72 322.467C182.535 323.245 183.187 324.177 183.637 325.21C184.087 326.242 184.326 327.354 184.341 328.48C184.355 329.606 184.145 330.724 183.722 331.768C183.299 332.812 182.671 333.761 181.877 334.559C181.082 335.358 180.136 335.99 179.094 336.418L179.109 336.388Z" fill="#6C63FF"/>
<path d="M168.333 266.204C170.873 270.132 185.361 276.906 185.361 276.906C185.361 276.906 185.098 260.924 182.551 256.996C181.329 255.112 179.408 253.79 177.211 253.321C175.014 252.852 172.721 253.274 170.835 254.495C168.95 255.716 167.627 257.636 167.158 259.831C166.688 262.027 167.111 264.319 168.333 266.204V266.204Z" fill="#6C63FF"/>
<path d="M150.936 302.366C154.535 305.37 170.392 307.488 170.392 307.488C170.392 307.488 165.357 292.317 161.75 289.328C160.893 288.618 159.905 288.084 158.842 287.756C157.779 287.428 156.661 287.313 155.554 287.416C154.446 287.52 153.369 287.84 152.385 288.36C151.402 288.879 150.53 289.587 149.82 290.443C149.11 291.299 148.575 292.287 148.247 293.349C147.919 294.412 147.803 295.528 147.907 296.635C148.011 297.743 148.331 298.818 148.851 299.802C149.371 300.785 150.079 301.656 150.936 302.366V302.366Z" fill="#6C63FF"/>
<path d="M138.859 339.865C141.903 343.417 157.165 348.201 157.165 348.201C157.165 348.201 154.768 332.43 151.717 328.847C150.254 327.142 148.173 326.088 145.933 325.916C143.692 325.744 141.475 326.469 139.768 327.931C138.062 329.393 137.007 331.473 136.835 333.712C136.663 335.951 137.389 338.167 138.852 339.872L138.859 339.865Z" fill="#6C63FF"/>
<path opacity="0.5" d="M197.002 234.254C195.958 238.813 184.67 250.139 184.67 250.139C184.67 250.139 179.41 235.028 180.485 230.477C180.731 229.392 181.189 228.366 181.833 227.458C182.476 226.55 183.292 225.778 184.234 225.185C185.176 224.592 186.226 224.191 187.323 224.003C188.421 223.816 189.544 223.846 190.63 224.093C191.715 224.34 192.742 224.797 193.65 225.44C194.559 226.083 195.331 226.899 195.925 227.84C196.518 228.782 196.92 229.831 197.107 230.928C197.294 232.024 197.264 233.147 197.017 234.232L197.002 234.254Z" fill="white"/>
<path opacity="0.5" d="M204.862 262.628C201.503 265.888 185.872 269.267 185.872 269.267C185.872 269.267 189.697 253.743 193.056 250.492C193.854 249.717 194.797 249.107 195.831 248.696C196.864 248.286 197.969 248.082 199.081 248.099C200.194 248.115 201.292 248.349 202.314 248.79C203.335 249.23 204.26 249.867 205.035 250.664C205.81 251.462 206.421 252.404 206.831 253.437C207.242 254.47 207.445 255.574 207.429 256.686C207.413 257.797 207.178 258.895 206.738 259.916C206.297 260.937 205.66 261.861 204.862 262.636V262.628Z" fill="white"/>
<path opacity="0.5" d="M194.379 305.633C189.87 306.752 174.638 301.78 174.638 301.78C174.638 301.78 185.767 290.312 190.321 289.193C192.503 288.655 194.808 289.005 196.731 290.166C198.654 291.328 200.037 293.205 200.575 295.385C201.113 297.565 200.763 299.87 199.601 301.791C198.439 303.713 196.561 305.095 194.379 305.633Z" fill="white"/>
<path opacity="0.5" d="M179.109 336.388C174.818 338.258 158.999 335.922 158.999 335.922C158.999 335.922 168.017 322.734 172.33 320.902C173.354 320.431 174.461 320.169 175.588 320.131C176.714 320.093 177.836 320.28 178.889 320.681C179.942 321.083 180.905 321.69 181.72 322.467C182.535 323.245 183.187 324.177 183.637 325.21C184.087 326.242 184.326 327.354 184.341 328.48C184.355 329.606 184.145 330.724 183.722 331.768C183.299 332.812 182.671 333.761 181.877 334.559C181.082 335.358 180.136 335.99 179.094 336.418L179.109 336.388Z" fill="white"/>
<path opacity="0.5" d="M168.333 266.204C170.873 270.132 185.361 276.906 185.361 276.906C185.361 276.906 185.098 260.924 182.551 256.996C181.329 255.112 179.408 253.79 177.211 253.321C175.014 252.852 172.721 253.274 170.835 254.495C168.95 255.716 167.627 257.636 167.158 259.831C166.688 262.027 167.111 264.319 168.333 266.204V266.204Z" fill="white"/>
<path opacity="0.5" d="M150.936 302.366C154.535 305.37 170.392 307.488 170.392 307.488C170.392 307.488 165.357 292.317 161.75 289.328C160.893 288.618 159.905 288.084 158.842 287.756C157.779 287.428 156.661 287.313 155.554 287.416C154.446 287.52 153.369 287.84 152.385 288.36C151.402 288.879 150.53 289.587 149.82 290.443C149.11 291.299 148.575 292.287 148.247 293.349C147.919 294.412 147.803 295.528 147.907 296.635C148.011 297.743 148.331 298.818 148.851 299.802C149.371 300.785 150.079 301.656 150.936 302.366V302.366Z" fill="white"/>
<path opacity="0.5" d="M138.859 339.865C141.903 343.417 157.165 348.201 157.165 348.201C157.165 348.201 154.768 332.43 151.717 328.847C150.254 327.142 148.173 326.088 145.933 325.916C143.692 325.744 141.475 326.469 139.768 327.931C138.062 329.393 137.007 331.473 136.835 333.712C136.663 335.951 137.389 338.167 138.852 339.872L138.859 339.865Z" fill="white"/>
<g opacity="0.1">
<path opacity="0.1" d="M287.218 215.396C287.128 215.284 287.083 215.208 287.083 215.208L287.218 215.396Z" fill="url(#paint0_linear)"/>
</g>
<path d="M411.469 225.648C411.326 230.432 414.294 232.227 414.294 232.227L442.024 256.77C452.725 260.646 454.048 280.976 454.048 280.976C455.1 282.854 455.551 286.113 455.551 289.989C455.423 302.005 452.026 318.753 452.026 318.753L452.124 318.911L452.026 319.399L452.124 319.557L452.026 320.045C452.558 320.902 453.132 321.732 453.747 322.531C450.741 328.682 445.143 338.58 442.723 340.691C439.379 343.597 432.691 365.22 432.691 365.22L432.909 365.167L432.691 365.865H432.834C431.21 368.997 429.557 373.038 429.204 377.026C428.965 379.641 428.423 382.219 427.588 384.709C426.602 387.602 426.516 390.725 427.34 393.669C428.002 396.023 428.44 398.434 428.648 400.871C429.067 405.566 430.221 410.165 432.067 414.502C435.126 421.765 439.176 431.686 439.387 433.684C439.499 434.765 439.762 436.357 440.063 438.002L439.89 438.047L432.698 454.345C432.698 454.345 430.692 458.851 426.686 458.851C426.296 458.848 425.91 458.928 425.553 459.086C425.196 459.244 424.876 459.476 424.616 459.766C424.355 460.057 424.159 460.399 424.04 460.771C423.922 461.142 423.884 461.535 423.928 461.922C423.876 462.375 423.935 462.835 424.101 463.259V463.259V463.304C424.101 463.379 424.169 463.455 424.199 463.53L424.267 463.657C424.304 463.732 424.349 463.8 424.402 463.875L424.492 464.003L424.657 464.206L424.77 464.333L424.965 464.529L425.101 464.656L425.326 464.836L425.492 464.957L425.755 465.122L425.95 465.242L426.243 465.392L426.468 465.505L426.792 465.64L427.047 465.745L427.408 465.865L427.693 465.955L428.099 466.053L428.422 466.128L428.866 466.203L429.219 466.263L429.707 466.316L430.091 466.361H430.632H431.038H432.067H432.781H433.179C433.565 466.361 433.963 466.329 434.374 466.263C447.42 464.972 457.114 454.998 457.114 454.998V454.81V454.622V454.435L457.159 454.382C457.159 454.382 456.317 441.397 451.546 438.46C451.07 436.048 450.819 433.596 450.794 431.138C450.794 422.125 453.469 413.06 446.112 398.212C446.112 398.212 445.774 394.337 448.457 388.532C450.03 385.42 451.771 382.397 453.672 379.474L454.003 379.437L453.469 380.143C453.469 380.143 462.164 379.497 462.833 373.684C462.896 373.2 463.009 372.724 463.171 372.264C465.185 366.421 474.909 358.137 479.223 357.544C483.904 356.898 493.268 367.871 496.95 375.621C497.161 376.064 497.379 376.485 497.597 376.868C501.189 383.184 505.645 381.757 505.645 381.757C505.487 381.569 505.352 381.389 505.209 381.201C505.356 381.182 505.502 381.152 505.645 381.111C505.251 380.634 504.887 380.132 504.555 379.609C507.899 383.229 511.454 386.564 513.002 388.509C516.346 392.707 514.678 395.606 514.678 396.898C514.678 402.719 506.983 419.812 508.989 429.192C509.981 433.826 508.846 439.249 507.441 443.545H507.148C501.459 445.693 500.798 453.398 500.843 457.274C500.843 457.394 500.843 457.514 500.843 457.627C500.843 457.822 500.843 458.01 500.843 458.19V458.31C500.843 458.455 500.843 458.595 500.843 458.731V458.828C500.843 458.978 500.843 459.121 500.843 459.249C500.843 459.384 500.843 459.512 500.843 459.617V459.662V459.887V459.947V460.067V460.15C500.843 460.15 516.895 467.247 530.609 469.162C531.09 469.23 531.549 469.283 531.992 469.32H532.398L533.262 469.373H534.434H534.81C535.073 469.373 535.321 469.373 535.562 469.313H535.802C536.113 469.273 536.406 469.222 536.681 469.162L536.862 469.117C537.072 469.065 537.267 469.02 537.455 468.96L537.703 468.877L538.147 468.704L538.372 468.599C538.507 468.532 538.635 468.464 538.763 468.389L538.966 468.231C539.118 468.133 539.263 468.025 539.402 467.908V467.908C539.538 467.79 539.667 467.662 539.785 467.525L539.883 467.405C539.958 467.314 540.028 467.218 540.093 467.12L540.183 466.969C540.238 466.874 540.286 466.779 540.326 466.684L540.394 466.534C540.435 466.426 540.47 466.315 540.499 466.203V466.091C540.531 465.945 540.554 465.797 540.566 465.648C540.566 465.648 540.566 465.595 540.566 465.565C540.573 465.445 540.573 465.325 540.566 465.204C540.566 465.159 540.566 465.107 540.566 465.062C540.762 463.079 539.191 461.104 537.621 461.404C534.277 462.05 529.925 458.175 529.925 458.175L520.78 443.244C520.637 439.752 521.028 435.313 523.237 431.708C527.588 424.611 532.939 409.44 532.939 409.44C532.939 409.44 532.27 400.082 534.945 395.561C537.621 391.04 534.945 383.943 534.945 383.943L526.762 368.171C527.701 368.171 528.265 368.171 528.265 368.171L527.972 367.525H528.265C528.265 367.525 518.232 345.257 514.219 342.673C511.356 340.833 507.313 330.469 505.202 324.649C506.043 324.206 506.509 323.898 506.509 323.898C506.509 323.898 508.854 295.817 508.854 278.085C508.854 260.353 520.878 253.233 520.878 253.233L548.735 236.755C556.092 233.849 557.099 226.429 557.099 226.429L557.016 226.218C557.077 225.94 557.099 225.783 557.099 225.783L557.016 225.572C557.077 225.295 557.099 225.137 557.099 225.137L543.723 190.927C543.723 191.032 543.64 191.123 543.602 191.22C542.656 185.325 539.732 176.094 530.677 175.449C517.3 174.48 512.641 181.262 515.294 181.907C517.947 182.553 529.339 187.075 529.339 187.075L533.848 194.337C533.555 194.239 533.39 194.172 533.39 194.172C533.645 194.27 533.87 194.433 534.044 194.645L534.344 195.126C533.758 194.96 533.397 194.818 533.397 194.818C533.479 194.852 533.557 194.895 533.63 194.945C533.696 194.98 533.759 195.021 533.818 195.066C533.879 195.12 533.937 195.177 533.991 195.238C534.052 195.298 534.109 195.361 534.164 195.426C534.224 195.501 534.277 195.584 534.337 195.666L534.427 195.802C534.081 195.709 533.74 195.598 533.405 195.471C536.907 196.598 538.372 217.829 538.665 223.259L521.343 230.972C521.343 230.972 503.954 230.972 496.597 235.171C490.142 238.851 487.031 235.824 486.369 235.028C486.82 235.604 487.219 236.16 487.564 236.695L487.376 236.568L487.204 236.447L487.061 236.335L486.903 236.2L486.85 236.155C485.33 233.31 484.327 230.217 483.889 227.022C484.71 225.065 485.113 222.959 485.072 220.838C485.03 218.717 484.546 216.628 483.649 214.705C483.931 214.904 484.24 215.063 484.566 215.178C483.814 213.772 483.306 212.248 483.063 210.672C482.897 208.907 483.401 207.029 482.65 205.415C482.57 205.251 482.48 205.093 482.379 204.942C482.379 204.889 482.379 204.829 482.319 204.769C481.567 203.132 479.726 202.23 478.561 200.803C477.81 199.842 477.382 198.67 476.66 197.679C475.746 196.511 474.481 195.667 473.052 195.269C471.623 194.872 470.103 194.943 468.717 195.471C467.62 195.914 466.598 196.658 465.41 196.68C464.796 196.65 464.188 196.544 463.599 196.365C459.918 195.601 456.083 196.318 452.928 198.363C449.853 200.392 447.423 203.259 445.924 206.624C445.114 208.277 444.586 210.054 444.361 211.881C444.274 213.796 444.304 215.715 444.452 217.627C444.519 220.773 444.053 224.078 445.398 226.939C445.481 227.12 445.586 227.277 445.676 227.45C445.676 227.495 445.676 227.54 445.729 227.585C447.007 230.311 449.682 232.091 452.244 233.811L455.558 235.997L455.934 236.245C454.985 236.15 454.031 236.13 453.079 236.185C448.059 236.507 438.049 231.678 438.049 231.678L427.603 222.23L432.698 201.337L432.503 201.479L432.698 200.691L432.503 200.833L432.698 200.045C432.601 200.12 432.51 200.188 432.413 200.255L437.711 191.648C437.711 191.648 449.081 187.142 451.756 186.481C454.431 185.82 449.749 179.061 436.373 180.022C426.529 180.736 423.928 191.581 423.245 197.296C422.666 196.658 422.328 196.192 422.328 196.192L412.949 218.363C411.97 220.445 411.457 222.716 411.446 225.017C411.461 225.235 411.461 225.452 411.469 225.648ZM487.264 236.913L487.534 237.319L487.264 236.913ZM460.458 237.003C461.203 236.755 461.87 236.315 462.389 235.726C463.23 236.046 464.094 236.297 464.975 236.477C464.736 237.298 464.4 238.087 463.975 238.828C463.847 238.325 463.787 238.017 463.787 238.017C462.697 237.616 461.586 237.275 460.458 236.996V237.003ZM454.799 377.521C455.551 376.312 456.302 375.133 457.054 374.022C456.408 375.208 455.551 376.5 454.799 377.521Z" fill="url(#paint1_linear)"/>
<path d="M523.094 364.085L532.675 383.237C532.675 383.237 535.23 390.259 532.675 394.728C530.12 399.196 530.759 408.456 530.759 408.456C530.759 408.456 525.649 423.477 521.493 430.484C517.337 437.491 519.892 447.758 519.892 447.758L503.285 449.673C503.285 449.673 509.672 437.221 507.793 427.961C505.915 418.7 513.227 401.795 513.227 396.034C513.227 394.758 514.827 391.881 511.626 387.735C508.425 383.59 496.296 373.053 496.596 366.984L523.094 364.085Z" fill="#F7BBC3"/>
<path d="M438.447 359.617C438.447 359.617 432.315 368.104 431.601 376.365C431.386 378.944 430.882 381.491 430.098 383.958C429.154 386.826 429.071 389.906 429.857 392.82C430.49 395.153 430.908 397.539 431.105 399.948C431.499 404.593 432.599 409.152 434.366 413.466C437.29 420.654 441.13 430.462 441.355 432.437C441.678 435.629 443.271 443.29 443.271 443.29L456.047 448.081C456.047 448.081 452.214 438.821 452.214 429.884C452.214 420.947 454.769 412.009 447.705 397.319C447.705 397.319 447.382 393.489 449.96 387.743C452.537 381.998 462.419 366.992 462.419 366.992L438.447 359.617Z" fill="#F7BBC3"/>
<path opacity="0.1" d="M459.097 371.003C460.15 372.144 454.731 379.414 454.731 379.414C454.731 379.414 463.035 378.776 463.674 373.03C463.734 372.553 463.842 372.082 463.997 371.626C465.921 365.851 475.209 357.657 479.327 357.071C483.836 356.433 492.741 367.285 496.258 374.945C496.461 375.389 496.664 375.794 496.875 376.177C500.309 382.426 504.562 381.014 504.562 381.014C502.308 378.235 501.842 376.035 502.548 374.255C505.344 367.368 526.28 367.57 526.28 367.57C526.28 367.57 516.699 345.543 512.866 342.989C509.034 340.436 502.962 321.277 502.962 321.277C502.962 321.277 457.279 316.17 456.963 318.4C456.648 320.631 447.697 338.198 444.504 341.066C441.31 343.935 434.93 365.34 434.93 365.34C445.789 362.148 457.767 369.966 459.045 370.927L459.097 371.003Z" fill="black"/>
<path d="M459.097 370.364C460.149 371.506 454.731 378.776 454.731 378.776C454.731 378.776 463.035 378.138 463.674 372.392C463.734 371.914 463.842 371.444 463.997 370.988C465.921 365.212 475.209 357.019 479.327 356.433C483.836 355.794 492.741 366.647 496.258 374.307C496.461 374.75 496.664 375.156 496.874 375.539C500.309 381.788 504.562 380.376 504.562 380.376C502.308 377.597 501.842 375.396 502.548 373.616C505.344 366.729 526.28 366.932 526.28 366.932C526.28 366.932 516.699 344.904 512.866 342.351C509.033 339.797 502.961 320.639 502.961 320.639C502.961 320.639 457.279 315.532 456.963 317.762C456.647 319.993 447.697 337.559 444.503 340.428C441.31 343.297 434.922 364.694 434.922 364.694C445.781 361.502 457.76 369.32 459.037 370.282L459.097 370.364Z" fill="#565171"/>
<path opacity="0.1" d="M519.104 441.825L527.889 456.673C527.889 456.673 532.044 460.503 535.238 459.865C538.432 459.227 541.626 468.802 528.527 466.887C515.429 464.972 500.099 457.95 500.099 457.95C500.099 457.95 498.663 445.017 506.005 442.178L519.104 441.825Z" fill="black"/>
<path opacity="0.1" d="M441.798 436.688L434.929 452.812C434.929 452.812 433.013 457.319 429.18 457.319C425.348 457.319 424.07 465.302 436.53 464.025C448.99 462.749 458.255 452.85 458.255 452.85C458.255 452.85 457.294 437.529 451.545 436.568C448.32 435.955 445.006 435.996 441.798 436.688V436.688Z" fill="black"/>
<path d="M519.104 442.463L527.889 457.311C527.889 457.311 532.044 461.142 535.238 460.503C538.432 459.865 541.626 469.44 528.527 467.525C515.429 465.61 500.099 458.588 500.099 458.588C500.099 458.588 498.663 445.655 506.005 442.816L519.104 442.463Z" fill="#B77983"/>
<path d="M441.798 437.356L434.929 453.481C434.929 453.481 433.013 457.987 429.18 457.987C425.348 457.987 424.07 465.971 436.53 464.694C448.99 463.417 458.255 453.519 458.255 453.519C458.255 453.519 457.294 438.197 451.545 437.236C448.32 436.624 445.006 436.664 441.798 437.356V437.356Z" fill="#B77983"/>
<g opacity="0.1">
<path opacity="0.1" d="M458.557 317.8C458.234 320.053 449.291 337.597 446.097 340.466C443.166 343.102 437.538 361.36 436.636 364.319C436.057 364.431 435.486 364.559 434.915 364.724C434.915 364.724 441.303 343.335 444.496 340.458C447.69 337.582 456.633 320.023 456.956 317.792C457.016 317.349 458.887 317.191 461.826 317.236C459.842 317.274 458.617 317.439 458.557 317.8Z" fill="black"/>
<path opacity="0.1" d="M480.929 356.425C485.437 355.787 494.343 366.639 497.86 374.3C498.062 374.743 498.265 375.149 498.476 375.532C500.46 379.136 502.707 380.188 504.262 380.436C503.233 380.623 499.753 380.781 496.875 375.532C496.665 375.149 496.462 374.743 496.259 374.3C493.035 367.27 485.25 357.567 480.53 356.5L480.929 356.425Z" fill="black"/>
<path opacity="0.1" d="M459.098 370.364L459.045 370.312C458.016 369.561 450.027 364.304 441.272 363.981C450.628 363.658 459.549 369.493 460.646 370.312L460.698 370.364C461.623 371.371 457.55 377.124 456.55 378.476C455.953 378.611 455.348 378.709 454.739 378.768C454.739 378.768 460.15 371.506 459.098 370.364Z" fill="black"/>
</g>
<path d="M541.302 197.439C541.302 197.439 541.302 177.965 528.527 177.003C515.752 176.042 511.243 182.749 513.836 183.387C516.428 184.025 527.25 188.494 527.25 188.494L534.276 200.308L541.302 197.439Z" fill="#F7BBC3"/>
<path d="M425.664 201.908C425.664 201.908 425.664 182.433 438.439 181.472C451.215 180.511 455.724 187.217 453.131 187.856C450.538 188.494 439.717 192.963 439.717 192.963L432.69 204.777L425.664 201.908Z" fill="#F7BBC3"/>
<path d="M483.484 222.021C483.484 222.021 482.522 234.788 490.51 242.133C498.498 249.478 471.986 258.731 471.986 258.731L460.165 244.687C460.165 244.687 469.746 238.941 464.674 229.043L483.484 222.021Z" fill="#F7BBC3"/>
<path opacity="0.1" d="M486.038 237.026C486.038 237.026 488.917 241.532 495.943 237.348C502.969 233.165 519.585 233.158 519.585 233.158L536.193 225.497C536.193 225.497 534.915 198.039 531.082 196.763C531.082 196.763 538.748 199.955 540.987 193.571L553.762 227.412C553.762 227.412 552.8 234.757 545.774 237.626L519.262 253.909C519.262 253.909 507.764 260.931 507.764 278.49C507.764 296.049 505.509 323.822 505.509 323.822C505.509 323.822 468.454 346.173 453.439 319.992C453.439 319.992 459.511 289.027 455.355 281.359C455.355 281.359 454.078 261.246 443.857 257.416L417.36 233.158C417.36 233.158 412.25 229.966 416.083 220.706L425.025 198.678C425.025 198.678 430.458 206.338 434.93 202.508L429.82 224.22L440.04 233.796C440.04 233.796 449.621 238.588 454.416 238.302C459.21 238.017 464.636 240.217 464.636 240.217C464.636 240.217 466.89 252.985 477.096 251.708C477.096 251.708 496.582 250.754 486.038 237.026Z" fill="black"/>
<path opacity="0.1" d="M486.038 235.749C486.038 235.749 488.916 240.255 495.942 236.072C502.969 231.889 519.584 231.919 519.584 231.919L536.192 224.258C536.192 224.258 534.914 196.801 531.082 195.524C531.082 195.524 538.747 198.716 540.986 192.332L553.762 226.174C553.762 226.174 552.8 233.519 545.773 236.388L519.261 252.685C519.261 252.685 507.763 259.707 507.763 277.266C507.763 294.825 505.509 322.599 505.509 322.599C505.509 322.599 468.453 344.949 453.438 318.768C453.438 318.768 459.51 287.803 455.355 280.135C455.355 280.135 454.077 260.023 443.857 256.192L417.344 231.926C417.344 231.926 412.234 228.735 416.067 219.474L425.01 197.447C425.01 197.447 430.443 205.107 434.914 201.277L429.804 222.989L440.024 232.565C440.024 232.565 449.606 237.356 454.4 237.071C459.195 236.786 464.62 238.986 464.62 238.986C464.62 238.986 466.875 251.754 477.08 250.477C477.095 250.432 496.581 249.478 486.038 235.749Z" fill="black"/>
<path d="M486.054 236.41L486.181 236.583L486.054 236.41Z" fill="#D39999"/>
<path d="M417.36 232.557L443.873 256.823C454.093 260.654 455.37 280.766 455.37 280.766C459.526 288.427 453.454 319.399 453.454 319.399C468.484 345.58 505.524 323.23 505.524 323.23C505.524 323.23 505.6 322.313 505.72 320.699C505.825 319.287 505.968 317.334 506.126 315.013C506.336 312.009 506.576 308.382 506.802 304.446C507.305 295.847 507.764 285.828 507.764 277.897C507.764 260.338 519.262 253.316 519.262 253.316L539.153 241.104L545.781 237.034C552.808 234.157 553.77 226.82 553.77 226.82L540.994 192.978C538.905 198.941 532.074 196.545 531.188 196.207C534.945 197.905 536.2 224.904 536.2 224.904L519.592 232.565C519.592 232.565 502.984 232.565 495.95 236.718C489.939 240.248 487 237.544 486.249 236.651C496.349 250.169 477.103 251.078 477.103 251.078C466.883 252.355 464.644 239.587 464.644 239.587C464.644 239.587 459.21 237.334 454.423 237.672C449.636 238.01 440.047 233.166 440.047 233.166L429.827 223.59L434.937 201.878C430.428 205.708 425.033 198.047 425.033 198.047L416.09 220.075C412.25 229.366 417.36 232.557 417.36 232.557Z" fill="#B45181"/>
<path opacity="0.1" d="M483.483 223.297C483.389 225.305 483.492 227.317 483.791 229.305C482.401 232.765 479.82 235.615 476.513 237.34C473.206 239.066 469.391 239.554 465.756 238.716C466.481 235.88 466.074 232.875 464.621 230.334L483.483 223.297Z" fill="black"/>
<path d="M469.273 237.829C477.918 237.829 484.926 230.825 484.926 222.185C484.926 213.546 477.918 206.542 469.273 206.542C460.627 206.542 453.619 213.546 453.619 222.185C453.619 230.825 460.627 237.829 469.273 237.829Z" fill="#F7BBC3"/>
<path opacity="0.1" d="M469.521 213.286C469.656 214.87 469.769 216.56 469.04 217.972C468.634 218.682 468.128 219.33 467.537 219.895L464.261 223.267C463.228 224.174 462.426 225.315 461.923 226.594C460.977 229.748 463.772 232.88 463.682 236.177C463.181 236.962 462.437 237.562 461.563 237.884C460.689 238.207 459.734 238.235 458.842 237.965C458.119 237.688 457.439 237.311 456.821 236.846L453.612 234.66C451.17 232.993 448.615 231.19 447.39 228.502C446.105 225.67 446.541 222.396 446.48 219.287C446.34 217.395 446.313 215.496 446.398 213.601C446.612 211.794 447.12 210.033 447.901 208.389C449.316 205.1 451.635 202.28 454.589 200.255C456.067 199.258 457.732 198.57 459.483 198.23C461.234 197.891 463.035 197.908 464.779 198.28C465.34 198.456 465.921 198.56 466.508 198.588C467.642 198.588 468.619 197.837 469.664 197.394C470.992 196.875 472.455 196.808 473.825 197.203C475.196 197.598 476.398 198.433 477.246 199.579C477.938 200.556 478.336 201.72 479.057 202.666C480.132 204.078 481.883 204.972 482.612 206.587C483.341 208.201 482.852 210.049 483.01 211.791C483.235 213.349 483.715 214.858 484.431 216.26C482.657 215.644 481.793 213.706 480.673 212.219C479.786 211.116 478.674 210.214 477.41 209.574C476.147 208.934 474.761 208.571 473.346 208.509C472.369 208.464 470.558 208.389 469.784 209.133C468.8 210.086 469.423 212.129 469.521 213.286Z" fill="black"/>
<path d="M469.205 212.648C469.34 214.232 469.453 215.922 468.724 217.334C468.318 218.044 467.812 218.691 467.221 219.257L463.899 222.644C462.869 223.545 462.068 224.677 461.562 225.948C460.615 229.103 463.411 232.234 463.32 235.532C462.82 236.316 462.075 236.916 461.201 237.239C460.328 237.561 459.372 237.59 458.481 237.319C457.758 237.042 457.078 236.666 456.459 236.2L453.296 234.044C450.853 232.377 448.298 230.575 447.073 227.886C445.788 225.055 446.224 221.78 446.164 218.671C446.024 216.779 445.996 214.881 446.081 212.986C446.296 211.178 446.803 209.418 447.584 207.773C449 204.485 451.319 201.664 454.273 199.64C455.751 198.643 457.415 197.954 459.166 197.614C460.917 197.275 462.719 197.292 464.463 197.664C465.023 197.84 465.604 197.944 466.191 197.972C467.326 197.972 468.303 197.221 469.347 196.778C470.676 196.26 472.138 196.193 473.509 196.588C474.879 196.983 476.082 197.818 476.93 198.964C477.621 199.94 478.02 201.104 478.741 202.05C479.816 203.462 481.567 204.356 482.296 205.971C483.024 207.586 482.536 209.433 482.694 211.176C482.919 212.733 483.398 214.243 484.114 215.644C482.341 215.028 481.476 213.091 480.357 211.604C479.47 210.5 478.357 209.598 477.094 208.958C475.83 208.319 474.445 207.956 473.03 207.894C472.053 207.848 470.242 207.773 469.468 208.517C468.476 209.448 469.077 211.483 469.205 212.648Z" fill="#74585E"/>
<g opacity="0.1">
<path opacity="0.1" d="M486.173 236.568C486.083 236.455 486.038 236.388 486.038 236.388L486.173 236.568Z" fill="black"/>
<path opacity="0.1" d="M432.082 202.974C433.133 202.996 434.152 202.614 434.93 201.908L434.622 203.199C433.771 203.37 432.889 203.292 432.082 202.974V202.974Z" fill="black"/>
<path opacity="0.1" d="M488.713 238.22C496.717 250.499 478.696 251.393 478.696 251.393C477.323 251.582 475.925 251.483 474.593 251.1C475.424 251.198 476.264 251.198 477.095 251.1C477.095 251.1 496.408 250.146 486.173 236.59C486.84 237.373 487.724 237.94 488.713 238.22V238.22Z" fill="black"/>
<path opacity="0.1" d="M456.017 237.987C454.721 238.02 453.428 237.865 452.177 237.529C452.921 237.658 453.677 237.706 454.431 237.672C456.421 237.587 458.412 237.787 460.345 238.265C458.918 238.005 457.466 237.912 456.017 237.987Z" fill="black"/>
<path opacity="0.1" d="M416.083 220.105L425.025 198.077C425.385 198.566 425.771 199.035 426.183 199.482L417.683 220.39C413.851 229.651 418.961 232.842 418.961 232.842L445.473 257.108C455.693 260.939 456.971 281.051 456.971 281.051C461.127 288.712 455.055 319.684 455.055 319.684C459.083 326.706 464.696 330.199 470.761 331.641C464.095 330.507 457.843 326.999 453.476 319.361C453.476 319.361 459.548 288.396 455.393 280.728C455.393 280.728 454.115 260.616 443.895 256.785L417.36 232.557C417.36 232.557 412.25 229.365 416.083 220.105Z" fill="black"/>
<path opacity="0.1" d="M531.083 196.162C531.738 196.414 532.414 196.608 533.104 196.74C536.606 199.812 537.786 225.212 537.786 225.212L521.178 232.873C521.178 232.873 504.57 232.873 497.536 237.026C494.095 239.061 491.652 239.024 490.021 238.46C491.524 238.55 493.456 238.152 495.906 236.71C502.932 232.557 519.547 232.557 519.547 232.557L536.155 224.897C536.155 224.897 534.915 197.439 531.083 196.162Z" fill="black"/>
<path opacity="0.1" d="M533.87 196.868C536.297 197.184 539.634 196.831 540.987 192.97L541.738 194.96C539.642 197.935 535.809 197.386 533.87 196.868Z" fill="black"/>
</g>
<path opacity="0.1" d="M506.802 304.439C507.306 295.839 507.764 285.821 507.764 277.89C507.764 260.331 519.262 253.308 519.262 253.308L539.154 241.097C527.581 244.101 512.183 249.275 510.8 255.366C508.546 265.265 504.413 266.219 506.006 283.155C506.666 290.229 506.932 297.335 506.802 304.439V304.439Z" fill="black"/>
<path opacity="0.1" d="M503.766 328.81C503.766 328.81 500.887 337.747 508.876 343.492Z" fill="black"/>
<path opacity="0.1" d="M459.045 328.81C459.045 328.81 458.084 335.516 454.251 338.07Z" fill="black"/>
<path opacity="0.1" d="M500.099 457.312C500.099 457.312 515.429 464.334 528.527 466.249C535.171 467.218 537.62 465.235 538.004 463.132C538.439 465.588 536.501 468.697 528.527 467.526C515.429 465.611 500.099 458.588 500.099 458.588C500.001 457.527 499.966 456.462 499.994 455.396C500.016 456.561 500.099 457.312 500.099 457.312Z" fill="black"/>
<path opacity="0.1" d="M436.207 464.011C448.667 462.734 457.933 452.835 457.933 452.835C457.933 452.835 457.46 445.28 455.19 440.451C457.738 445.22 458.256 453.474 458.256 453.474C458.256 453.474 448.99 463.372 436.531 464.649C430.166 465.302 427.385 463.537 426.701 461.645C427.746 463.274 430.571 464.589 436.207 464.011Z" fill="black"/>
<path d="M451.191 136.658C451.189 143.33 453.556 149.786 457.872 154.876C462.188 159.966 468.172 163.36 474.758 164.452C481.344 165.545 488.104 164.265 493.834 160.841C499.564 157.417 503.891 152.071 506.045 145.756C508.2 139.441 508.041 132.567 505.596 126.358C503.152 120.149 498.582 115.009 492.7 111.854C486.818 108.698 480.006 107.732 473.478 109.128C466.949 110.523 461.129 114.19 457.053 119.474C453.255 124.398 451.194 130.44 451.191 136.658V136.658Z" fill="url(#paint2_linear)"/>
<path d="M452.229 136.658C452.219 143.088 454.495 149.312 458.65 154.221C462.805 159.13 468.569 162.405 474.915 163.462C481.261 164.52 487.776 163.291 493.3 159.994C498.824 156.698 502.997 151.548 505.075 145.463C507.153 139.378 507.002 132.753 504.648 126.769C502.295 120.785 497.891 115.831 492.223 112.79C486.555 109.748 479.99 108.817 473.699 110.163C467.408 111.508 461.799 115.042 457.872 120.135C454.221 124.871 452.237 130.679 452.229 136.658V136.658Z" fill="#E0E0E0"/>
<path d="M464.162 123.327V133.857" stroke="#535461" stroke-miterlimit="10"/>
<path d="M484.287 132.918L473.293 140.173" stroke="#535461" stroke-miterlimit="10"/>
<path d="M473.293 116.786L486.166 122.163" stroke="#535461" stroke-miterlimit="10"/>
<path d="M494.824 134.788L494.117 151.16" stroke="#535461" stroke-miterlimit="10"/>
<path d="M486.166 156.072L471.655 148.825" stroke="#535461" stroke-miterlimit="10"/>
<path d="M464.162 149.996V159.136" stroke="#535461" stroke-miterlimit="10"/>
<path d="M458.782 142.974L452.454 140.173" stroke="#535461" stroke-miterlimit="10"/>
<path d="M494.117 121.224L493.636 113.571" stroke="#535461" stroke-miterlimit="10"/>
<path d="M498.333 130.116L506.178 132.354" stroke="#535461" stroke-miterlimit="10"/>
<path d="M500.437 130.116L494.357 119.587L484.295 121.224V132.918L495.056 138.535L500.437 130.116Z" fill="#6C63FF"/>
<path d="M457.873 120.105L464.17 123.327C466.275 120.518 474.932 117.244 474.932 117.244L474.03 110.056C467.606 111.345 461.867 114.914 457.873 120.105V120.105Z" fill="#6C63FF"/>
<path d="M474.932 139.001L463.93 133.856L457.843 142.508L464.163 152.565L474.932 150.927V139.001Z" fill="#6C63FF"/>
<path d="M484.287 154.668V163.312C487.812 162.664 491.173 161.325 494.177 159.372C497.181 157.419 499.768 154.891 501.789 151.934L494.117 148.787L484.287 154.668Z" fill="#6C63FF"/>
<path d="M81.5361 336.132C81.5363 341.73 83.5249 347.145 87.1478 351.414C90.7707 355.683 95.7925 358.528 101.318 359.442C106.844 360.356 112.515 359.279 117.321 356.404C122.127 353.529 125.755 349.042 127.559 343.743C129.364 338.444 129.227 332.676 127.173 327.468C125.12 322.261 121.283 317.951 116.346 315.306C111.409 312.662 105.694 311.855 100.217 313.03C94.7409 314.204 89.8597 317.284 86.4433 321.72C83.2608 325.851 81.5354 330.918 81.5361 336.132Z" fill="url(#paint3_linear)"/>
<path d="M82.4082 336.132C82.4095 341.523 84.3258 346.739 87.8157 350.85C91.3056 354.96 96.1424 357.699 101.464 358.579C106.786 359.458 112.248 358.42 116.876 355.651C121.504 352.881 124.998 348.56 126.735 343.456C128.472 338.352 128.34 332.798 126.362 327.782C124.384 322.767 120.689 318.616 115.934 316.07C111.18 313.523 105.675 312.746 100.401 313.877C95.1265 315.008 90.4255 317.974 87.135 322.246C84.069 326.226 82.407 331.109 82.4082 336.132V336.132Z" fill="#E0E0E0"/>
<path d="M92.418 324.949V333.781" stroke="#535461" stroke-miterlimit="10"/>
<path d="M109.296 332.993L100.067 339.077" stroke="#535461" stroke-miterlimit="10"/>
<path d="M100.067 319.459L110.866 323.973" stroke="#535461" stroke-miterlimit="10"/>
<path d="M118.126 334.562L117.54 348.299" stroke="#535461" stroke-miterlimit="10"/>
<path d="M110.866 352.414L98.6924 346.331" stroke="#535461" stroke-miterlimit="10"/>
<path d="M92.418 347.315V354.983" stroke="#535461" stroke-miterlimit="10"/>
<path d="M87.9012 341.427L82.5957 339.076" stroke="#535461" stroke-miterlimit="10"/>
<path d="M117.54 323.184L117.134 316.771" stroke="#535461" stroke-miterlimit="10"/>
<path d="M121.071 330.642L127.654 332.52" stroke="#535461" stroke-miterlimit="10"/>
<path d="M122.838 330.642L117.735 321.817L109.296 323.184V332.993L118.321 337.702L122.838 330.642Z" fill="#6C63FF"/>
<path d="M87.1348 322.246L92.3952 324.95C94.1612 322.599 101.413 319.85 101.413 319.85L100.662 313.842C95.2863 314.922 90.4825 317.906 87.1348 322.246V322.246Z" fill="#6C63FF"/>
<path d="M101.443 338.092L92.2224 333.781L87.1123 341.036L92.4178 349.47L101.443 348.096V338.092Z" fill="#6C63FF"/>
<path d="M109.296 351.235V358.513C112.252 357.969 115.07 356.845 117.589 355.207C120.108 353.569 122.278 351.448 123.972 348.967L117.54 346.331L109.296 351.235Z" fill="#6C63FF"/>
<path d="M64.1768 364.529C64.1769 370.127 66.1656 375.542 69.7885 379.811C73.4114 384.08 78.4331 386.925 83.959 387.839C89.4849 388.753 95.1559 387.676 99.9616 384.801C104.767 381.926 108.396 377.439 110.2 372.14C112.004 366.841 111.867 361.073 109.814 355.865C107.76 350.658 103.923 346.348 98.9866 343.703C94.0499 341.059 88.3342 340.252 82.8579 341.427C77.3815 342.601 72.5003 345.681 69.084 350.117C65.9015 354.248 64.1761 359.315 64.1768 364.529V364.529Z" fill="url(#paint4_linear)"/>
<path d="M65.0488 364.529C65.0501 369.92 66.9664 375.135 70.4563 379.246C73.9462 383.357 78.7831 386.096 84.1051 386.975C89.4271 387.854 94.8886 386.817 99.5166 384.047C104.145 381.278 107.638 376.956 109.376 371.852C111.113 366.749 110.981 361.194 109.003 356.179C107.025 351.163 103.329 347.013 98.5747 344.466C93.8202 341.919 88.3155 341.143 83.0413 342.274C77.7672 343.405 73.0661 346.37 69.7757 350.642C66.7096 354.623 65.0476 359.506 65.0488 364.529Z" fill="#E0E0E0"/>
<path d="M75.0586 353.346V362.17" stroke="#535461" stroke-miterlimit="10"/>
<path d="M91.9365 361.39L82.7158 367.473" stroke="#535461" stroke-miterlimit="10"/>
<path d="M82.7158 347.856L93.5071 352.37" stroke="#535461" stroke-miterlimit="10"/>
<path d="M100.767 362.959L100.181 376.688" stroke="#535461" stroke-miterlimit="10"/>
<path d="M93.5074 380.811L81.3408 374.728" stroke="#535461" stroke-miterlimit="10"/>
<path d="M75.0586 375.711V383.38" stroke="#535461" stroke-miterlimit="10"/>
<path d="M70.5418 369.823L65.2363 367.473" stroke="#535461" stroke-miterlimit="10"/>
<path d="M100.18 351.581L99.7744 345.167" stroke="#535461" stroke-miterlimit="10"/>
<path d="M103.713 359.039L110.296 360.916" stroke="#535461" stroke-miterlimit="10"/>
<path d="M105.478 359.039L100.376 350.207L91.9365 351.581V361.389L100.969 366.098L105.478 359.039Z" fill="#6C63FF"/>
<path d="M69.7754 350.642L75.0358 353.346C76.8018 350.995 84.0536 348.247 84.0536 348.247L83.3021 342.238C77.9269 343.318 73.1231 346.303 69.7754 350.642V350.642Z" fill="#6C63FF"/>
<path d="M84.0841 366.489L74.8633 362.17L69.7607 369.433L75.0587 377.867L84.0841 376.493V366.489Z" fill="#6C63FF"/>
<path d="M91.9365 379.609V386.887C94.8911 386.345 97.7091 385.224 100.228 383.588C102.747 381.952 104.917 379.834 106.613 377.356L100.18 374.72L91.9365 379.609Z" fill="#6C63FF"/>
</g>
<defs>
<linearGradient id="paint0_linear" x1="287.121" y1="215.396" x2="287.121" y2="215.208" gradientUnits="userSpaceOnUse">
<stop stop-color="#808080" stop-opacity="0.25"/>
<stop offset="0.54" stop-color="#808080" stop-opacity="0.12"/>
<stop offset="1" stop-color="#808080" stop-opacity="0.1"/>
</linearGradient>
<linearGradient id="paint1_linear" x1="74952.2" y1="198800" x2="74952.2" y2="83679.6" gradientUnits="userSpaceOnUse">
<stop stop-color="#808080" stop-opacity="0.25"/>
<stop offset="0.54" stop-color="#808080" stop-opacity="0.12"/>
<stop offset="1" stop-color="#808080" stop-opacity="0.1"/>
</linearGradient>
<linearGradient id="paint2_linear" x1="29663.3" y1="15317.5" x2="29663.3" y2="11092.9" gradientUnits="userSpaceOnUse">
<stop stop-color="#808080" stop-opacity="0.25"/>
<stop offset="0.54" stop-color="#808080" stop-opacity="0.12"/>
<stop offset="1" stop-color="#808080" stop-opacity="0.1"/>
</linearGradient>
<linearGradient id="paint3_linear" x1="48133.3" y1="25336.9" x2="48133.3" y2="22364.5" gradientUnits="userSpaceOnUse">
<stop stop-color="#808080" stop-opacity="0.25"/>
<stop offset="0.54" stop-color="#808080" stop-opacity="0.12"/>
<stop offset="1" stop-color="#808080" stop-opacity="0.1"/>
</linearGradient>
<linearGradient id="paint4_linear" x1="49207.8" y1="27151.9" x2="49207.8" y2="24179.6" gradientUnits="userSpaceOnUse">
<stop stop-color="#808080" stop-opacity="0.25"/>
<stop offset="0.54" stop-color="#808080" stop-opacity="0.12"/>
<stop offset="1" stop-color="#808080" stop-opacity="0.1"/>
</linearGradient>
<clipPath id="clip0">
<rect width="860" height="600" fill="white"/>
</clipPath>
</defs>
</svg>
