<svg width="857" height="550" viewBox="0 0 857 550" fill="none" xmlns="http://www.w3.org/2000/svg">
<g clip-path="url(#clip0)">
<path d="M384.301 540.207C377.901 540.2 371.604 541.953 366.008 545.3H402.547C396.968 541.954 390.687 540.201 384.301 540.207V540.207Z" fill="#E6E6E6"/>
<path d="M455.206 535.113C444.514 535.1 434.082 538.659 425.346 545.3H485.026C476.301 538.667 465.884 535.108 455.206 535.113V535.113Z" fill="#E6E6E6"/>
<path d="M856.85 470.635C854.18 418.47 815.284 375.938 766.912 372.373C744.614 370.685 722.46 377.353 704.202 391.248C685.944 405.144 672.704 425.412 666.725 448.62C665.551 448.575 664.378 448.524 663.194 448.524C642.259 448.528 621.887 455.836 605.127 469.355C588.367 482.874 576.12 501.876 570.218 523.52C556.345 516.952 540.842 515.527 526.138 519.468C511.433 523.409 498.356 532.494 488.956 545.3H791.229C828.365 545.3 858.433 512.156 856.919 472.175C856.899 471.662 856.876 471.149 856.85 470.635Z" fill="#BEBEBE"/>
<path d="M849 544.223H0V546.378H849V544.223Z" fill="#3F3D56"/>
<path d="M283.344 194.213C283.344 194.213 244.809 181.279 250.725 202.559C256.64 223.838 289.098 213.089 289.098 213.089L283.344 194.213Z" fill="#FFB8B8"/>
<path d="M430.646 114.341C430.646 114.341 410.898 85.262 391.711 115.45C372.487 145.697 354.613 170.528 354.613 170.528L306.867 187.302L279.245 189.943L286.854 216.405L367.168 203.851C367.168 203.851 456.582 146.619 430.646 114.341Z" fill="#2F2E41"/>
<path d="M342.5 275.379C342.5 275.379 312.5 298.007 314.5 318.48C316.5 338.953 329.5 394.985 329.5 394.985L356.5 390.675C356.5 390.675 359.5 347.573 349.5 331.41L397.5 302.317L342.5 275.379Z" fill="#FFB8B8"/>
<path d="M409 328.717C409 328.717 407 368.585 412 384.748C417 400.911 422 461.253 422 461.253H450C450 461.253 463 408.454 447 384.748C447 384.748 442 353.5 456 338.415L409 328.717Z" fill="#FFB8B8"/>
<path d="M402.5 218.27C402.5 218.27 337.5 262.449 337.5 276.457L389.5 322.791L407.5 301.24L405.5 333.566L461.5 345.419C461.5 345.419 481.5 263.526 480.5 260.294C479.5 257.061 476.5 209.65 476.5 209.65L402.5 218.27Z" fill="#2F2E41"/>
<path d="M356.5 385.287L327.5 391.752L332.652 414.577C335.188 425.811 335.477 437.498 333.5 448.861V448.861C333.5 448.861 363.5 457.482 363.5 453.171C363.5 448.861 356.5 431.621 358.5 419.768C360.5 407.915 356.5 385.287 356.5 385.287Z" fill="#6C63FF"/>
<path d="M371.5 466.102C370.5 461.792 362.192 442.25 361.846 445.556C361.5 448.861 345.5 454.249 339.5 447.784C339.5 447.784 331.5 440.241 328.5 447.784C325.5 455.327 319.5 468.257 319.5 468.257C319.5 468.257 292.5 482.265 296.5 489.808C297.309 491.333 299.55 491.977 302.611 492.033C302.539 492.233 302.501 492.444 302.5 492.658V493.422C302.5 493.892 302.673 494.343 302.982 494.676C303.291 495.008 303.709 495.195 304.146 495.195H304.854C305.291 495.195 305.709 495.008 306.018 494.676C306.327 494.343 306.5 493.892 306.5 493.422V492.658C306.498 492.383 306.437 492.113 306.32 491.868C307.138 491.791 307.987 491.689 308.859 491.565C308.628 491.875 308.501 492.261 308.5 492.658V493.422C308.5 493.892 308.673 494.343 308.982 494.676C309.291 495.008 309.709 495.195 310.146 495.195H310.854C311.291 495.195 311.709 495.008 312.018 494.676C312.327 494.343 312.5 493.892 312.5 493.422V492.658C312.499 492.343 312.42 492.033 312.27 491.761C312.12 491.49 311.906 491.266 311.649 491.115C313.951 490.701 316.353 490.174 318.742 489.59C318.585 489.865 318.501 490.181 318.5 490.503V491.267C318.5 491.737 318.673 492.188 318.982 492.521C319.291 492.853 319.709 493.04 320.146 493.04H320.854C321.291 493.04 321.709 492.853 322.018 492.521C322.327 492.188 322.5 491.737 322.5 491.267V490.503C322.5 490.16 322.407 489.825 322.233 489.538C322.06 489.251 321.813 489.024 321.522 488.885C323.313 488.415 325.069 487.924 326.74 487.437C326.584 487.712 326.501 488.027 326.5 488.348V489.112C326.5 489.582 326.673 490.033 326.982 490.366C327.291 490.698 327.709 490.885 328.146 490.885H328.854C329.291 490.885 329.709 490.698 330.018 490.366C330.327 490.033 330.5 489.582 330.5 489.112V488.348C330.499 487.971 330.386 487.604 330.178 487.301C329.97 486.998 329.677 486.775 329.343 486.664C335.215 484.881 339.5 483.342 339.5 483.342C339.5 483.342 344.476 481.392 350.5 478.756V479.414C350.5 479.884 350.673 480.335 350.982 480.668C351.291 481.001 351.709 481.187 352.146 481.187H352.854C353.291 481.187 353.709 481.001 354.018 480.668C354.327 480.335 354.5 479.884 354.5 479.414V478.65C354.499 478.382 354.442 478.117 354.331 477.875C354.221 477.634 354.061 477.424 353.864 477.259C355.073 476.712 356.293 476.148 357.5 475.575V476.181C357.5 476.652 357.673 477.103 357.982 477.435C358.291 477.768 358.709 477.955 359.146 477.955H359.854C360.291 477.955 360.709 477.768 361.018 477.435C361.327 477.103 361.5 476.652 361.5 476.181V475.418C361.5 475.133 361.436 474.852 361.313 474.599C361.19 474.346 361.013 474.129 360.796 473.966C362.101 473.31 363.357 472.655 364.516 472.013C364.511 472.071 364.5 472.126 364.5 472.185V472.949C364.5 473.419 364.673 473.87 364.982 474.203C365.291 474.535 365.709 474.722 366.146 474.722H366.854C367.291 474.722 367.709 474.535 368.018 474.203C368.327 473.87 368.5 473.419 368.5 472.949V472.185C368.5 471.777 368.369 471.38 368.129 471.064C367.889 470.747 367.555 470.53 367.183 470.448C369.979 468.698 371.742 467.146 371.5 466.102Z" fill="#2F2E41"/>
<path d="M452 456.404L420.32 454.249C420.32 454.249 422.24 489.807 418.4 501.66C414.56 513.513 416.48 517.823 416.48 517.823L444.32 519.978L452 456.404Z" fill="#6C63FF"/>
<path d="M452.39 534.993C452.246 530.553 447.902 509.574 446.924 512.73C445.946 515.885 429.255 517.56 424.638 509.888C424.638 509.888 418.273 500.714 413.88 507.417C409.486 514.12 401.116 525.418 401.116 525.418C401.116 525.418 371.999 533.052 374.451 541.328C374.947 543.001 377.015 544.134 379.997 544.877C379.888 545.056 379.811 545.255 379.768 545.464L379.62 546.211C379.529 546.671 379.611 547.151 379.849 547.545C380.086 547.94 380.46 548.217 380.886 548.315L381.579 548.474C382.006 548.572 382.452 548.483 382.818 548.227C383.184 547.971 383.441 547.569 383.532 547.109L383.68 546.362C383.732 546.093 383.724 545.815 383.657 545.549C384.472 545.657 385.321 545.748 386.198 545.823C385.913 546.075 385.714 546.423 385.636 546.812L385.488 547.559C385.397 548.019 385.479 548.499 385.717 548.893C385.954 549.288 386.328 549.565 386.755 549.663L387.448 549.822C387.874 549.92 388.32 549.831 388.686 549.575C389.052 549.319 389.309 548.917 389.4 548.457L389.548 547.71C389.608 547.401 389.591 547.081 389.497 546.781C389.403 546.482 389.236 546.216 389.014 546.009C391.346 546.122 393.797 546.147 396.246 546.112C396.04 546.346 395.897 546.636 395.833 546.951L395.685 547.698C395.594 548.158 395.677 548.638 395.914 549.032C396.152 549.427 396.525 549.704 396.952 549.802L397.645 549.961C398.072 550.059 398.517 549.97 398.883 549.714C399.25 549.458 399.506 549.056 399.597 548.596L399.745 547.85C399.811 547.514 399.786 547.165 399.671 546.845C399.557 546.526 399.359 546.248 399.101 546.047C400.945 545.989 402.757 545.904 404.486 545.804C404.28 546.037 404.138 546.326 404.074 546.64L403.927 547.387C403.836 547.847 403.918 548.327 404.155 548.722C404.393 549.116 404.766 549.393 405.193 549.491L405.886 549.651C406.313 549.749 406.758 549.66 407.124 549.404C407.491 549.148 407.747 548.746 407.838 548.286L407.986 547.539C408.058 547.17 408.019 546.786 407.874 546.443C407.729 546.099 407.486 545.815 407.18 545.632C413.269 545.208 417.757 544.665 417.757 544.665C417.757 544.665 423.001 543.875 429.403 542.651L429.276 543.295C429.185 543.755 429.267 544.235 429.504 544.629C429.742 545.024 430.115 545.301 430.542 545.399L431.235 545.558C431.662 545.656 432.107 545.567 432.474 545.312C432.84 545.056 433.097 544.653 433.188 544.194L433.335 543.447C433.387 543.184 433.382 542.911 433.32 542.651C433.259 542.39 433.143 542.148 432.982 541.943C434.271 541.679 435.573 541.402 436.864 541.113L436.747 541.706C436.656 542.166 436.738 542.646 436.976 543.041C437.213 543.435 437.587 543.712 438.013 543.81L438.706 543.969C439.133 544.067 439.579 543.979 439.945 543.723C440.311 543.467 440.568 543.065 440.659 542.605L440.807 541.858C440.862 541.579 440.854 541.29 440.783 541.015C440.712 540.74 440.58 540.488 440.399 540.28C441.802 539.932 443.158 539.573 444.416 539.206C444.399 539.261 444.378 539.313 444.367 539.37L444.219 540.117C444.128 540.577 444.21 541.057 444.448 541.452C444.685 541.846 445.058 542.123 445.485 542.221L446.178 542.38C446.605 542.478 447.051 542.39 447.417 542.134C447.783 541.878 448.04 541.476 448.131 541.016L448.279 540.269C448.358 539.869 448.306 539.452 448.133 539.089C447.959 538.725 447.675 538.437 447.327 538.274C450.4 537.191 452.425 536.069 452.39 534.993Z" fill="#2F2E41"/>
<path d="M402.5 78.191C418.516 78.191 431.5 64.2007 431.5 46.9427C431.5 29.6847 418.516 15.6943 402.5 15.6943C386.484 15.6943 373.5 29.6847 373.5 46.9427C373.5 64.2007 386.484 78.191 402.5 78.191Z" fill="#FFB8B8"/>
<path d="M428.5 43.7104C428.5 43.7104 444.5 65.261 452.5 64.1835L417.5 93.2768C417.5 93.2768 413.5 74.9588 408.5 72.8037C403.5 70.6487 428.5 43.7104 428.5 43.7104Z" fill="#FFB8B8"/>
<path d="M491 203.723C491 203.723 490.997 84.8219 472.487 74.5795C453.987 64.343 441.749 58.5005 441.749 58.5005C441.477 62.4019 440.448 66.1984 438.729 69.6445C437.01 73.0907 434.639 76.1099 431.769 78.5071C425.635 83.6099 419.524 87.8412 416.11 87.8547L416 87.3502L415.583 86.0692L405.5 102.974C405.5 102.974 396.5 105.129 393.5 111.595C391.877 115.092 399.53 150.303 395 182.173C391.156 209.212 374.959 233.62 374.5 236.588C373.724 241.604 393.41 228.461 402.275 222.317C402.406 222.475 402.5 222.58 402.5 222.58C402.5 222.58 397.5 224.735 407.5 221.503C413.166 219.671 421.077 219.569 426.872 219.825C426.865 221.697 426.906 223.185 427 224.196C428 234.972 478 250.057 485 246.825C492 243.592 491 203.723 491 203.723Z" fill="#2F2E41"/>
<path d="M456 244.669C456 244.669 426 273.763 446 279.15C466 284.538 474 248.98 474 248.98L456 244.669Z" fill="#FFB8B8"/>
<path d="M421 320.097C421 320.097 435 306.089 443 313.632C451 321.174 456 326.562 456 326.562C456 326.562 433 311.477 421 320.097Z" fill="#6C63FF"/>
<path d="M424.637 487.705C424.637 487.705 432.528 479.809 437.037 484.061C441.546 488.312 444.364 491.349 444.364 491.349C444.364 491.349 431.4 482.846 424.637 487.705Z" fill="#2F2E41"/>
<path d="M336.233 414.266C336.233 414.266 341.65 404.238 347.112 406.891C352.575 409.544 356.091 411.566 356.091 411.566C356.091 411.566 341.392 407.497 336.233 414.266Z" fill="#2F2E41"/>
<path d="M483.444 89.3641C473.531 67.8933 443.37 79.6034 448.271 102.996C448.344 103.344 448.42 103.696 448.5 104.052C453.666 126.195 462.107 147.298 473.5 166.549L462.5 219.348L450.5 246.286L475.5 252.751L506.5 171.936C506.5 171.936 497.95 120.783 483.444 89.3641Z" fill="#2F2E41"/>
<path opacity="0.2" d="M469 168.165L450 245.747L466 209.111L469 168.165Z" fill="black"/>
<path d="M420.713 10.5181C420.713 10.5181 404.683 -7.66679 388.548 3.78538C372.413 15.2375 364.758 26.3622 366.34 34.1081C367.922 41.854 372.605 52.6282 372.605 52.6282C372.605 52.6282 369.695 36.5809 383.055 35.3934C396.415 34.2059 414.874 24.6787 414.874 24.6787L427.36 53.4099C427.36 53.4099 429.125 46.7519 434.019 48.6616C438.912 50.5713 435.119 12.6481 420.713 10.5181Z" fill="#2F2E41"/>
<path d="M318 421.384C317.999 424.114 317.788 426.839 317.37 429.531V429.541C316.222 436.783 313.562 443.648 309.591 449.62C305.62 455.592 300.442 460.514 294.448 464.014C288.454 467.514 281.8 469.502 274.989 469.826C268.178 470.15 261.387 468.803 255.13 465.886H255.12C253.269 465.025 251.474 464.028 249.75 462.902C244.406 459.425 239.79 454.79 236.196 449.29C232.602 443.79 230.107 437.546 228.87 430.953C228.29 427.802 227.999 424.597 228 421.384C228 419.919 228.06 418.464 228.18 417.031V417.021C229.218 404.647 234.624 393.175 243.282 384.971C251.941 376.768 263.192 372.458 274.713 372.932C286.235 373.406 297.148 378.628 305.2 387.519C313.253 396.411 317.831 408.294 317.99 420.716V420.727C318 420.953 318 421.158 318 421.384Z" fill="#6C63FF"/>
<path d="M284.078 405.189H263.923L253.846 386.386L260.681 373.619L261.081 373.504C269.734 371.012 278.873 371.287 287.383 374.296L287.746 374.425L294.155 386.386L284.078 405.189ZM265.078 403.034H282.923L291.846 386.386L286.396 376.216C278.488 373.514 270.035 373.256 261.998 375.471L256.155 386.386L265.078 403.034Z" fill="white"/>
<path d="M283.078 443.981H262.923L252.846 425.174L262.923 406.366H283.078L293.155 425.174L283.078 443.981ZM264.078 441.826H281.923L290.846 425.174L281.923 408.521H264.078L255.155 425.174L264.078 441.826Z" fill="white"/>
<path d="M273 470.951C266.714 470.963 260.495 469.576 254.731 466.874L253.703 466.393L263.922 447.309H284.077L293.865 465.579L292.893 466.082C286.688 469.304 279.887 470.968 273 470.951V470.951ZM256.562 465.365C262.061 467.749 267.949 468.912 273.875 468.786C279.8 468.66 285.641 467.247 291.048 464.631L282.922 449.464H265.077L256.562 465.365Z" fill="white"/>
<path d="M317.078 424.584H296.923L286.846 405.781L296.923 386.968H306.1L306.396 387.303C314.355 396.326 318.854 408.256 318.991 420.703V421.015L317.078 424.584ZM298.078 422.429H315.923L316.987 420.446C316.794 408.8 312.609 397.643 305.238 389.123H298.078L289.155 405.781L298.078 422.429Z" fill="white"/>
<path d="M296.646 463.927L286.846 445.65L296.923 426.836H317.077L318.371 429.239L318.356 429.721C317.264 436.583 314.845 443.121 311.256 448.911C307.667 454.7 302.989 459.612 297.525 463.328L296.646 463.927ZM289.155 445.65L297.33 460.895C302.283 457.349 306.518 452.761 309.783 447.406C313.047 442.051 315.272 436.04 316.325 429.734L315.924 428.991H298.078L289.155 445.65Z" fill="white"/>
<path d="M250.106 464.392L249.233 463.823C243.772 460.267 239.055 455.528 235.382 449.906C231.708 444.285 229.157 437.903 227.89 431.164L227.815 430.765L229.923 426.836H250.078L260.155 445.65L250.106 464.392ZM229.926 431.137C231.141 437.323 233.489 443.187 236.833 448.383C240.177 453.58 244.449 458.005 249.4 461.4L257.845 445.65L248.922 428.991H231.077L229.926 431.137Z" fill="white"/>
<path d="M250.077 422.429H229.923L227.18 417.32V417.031C228.167 404.82 233.331 393.44 241.668 385.101L241.957 384.812H250.077L260.154 403.626L250.077 422.429ZM231.076 420.274H248.922L257.845 403.626L248.922 386.967H242.746C235.031 394.813 230.219 405.409 229.204 416.787L231.076 420.274Z" fill="white"/>
</g>
<defs>
<clipPath id="clip0">
<rect width="856.974" height="550" fill="white"/>
</clipPath>
</defs>
</svg>
