<svg width="860" height="606" viewBox="0 0 860 606" fill="none" xmlns="http://www.w3.org/2000/svg">
<path d="M505.032 243.658C514.588 240.478 525.418 240.848 534.893 244.175C587.051 262.661 641.04 277.671 696.143 288.91C726.562 295.121 760.882 299.705 787.399 285.952C812.084 273.16 822.595 246.246 816.225 222.88C809.855 199.515 788.992 179.994 763.829 167.794C738.666 155.594 709.601 149.9 680.616 146.869C669.069 145.686 657.284 144.798 646.693 141.027C636.023 137.256 626.468 129.936 624.636 120.546C622.486 109.528 631.086 99.1766 633.555 88.2333C637.377 71.2268 625.592 53.9246 609.029 43.2031C592.466 32.5556 571.682 27.3057 551.297 22.8692C473.738 6.01065 393.073 -3.01018 312.966 0.908707C292.262 1.94388 267.656 6.01065 259.853 21.7601C252.925 35.6611 263.436 51.4106 277.053 61.4666C290.669 71.5226 307.631 78.3252 319.814 89.4903C329.051 97.9196 332.793 114.187 319.893 118.327C313.045 120.546 305.56 117.662 299.031 114.926C254.358 96.5147 206.421 83.5011 157.21 76.4027C138.338 73.6669 118.908 71.8923 100.036 74.5542C81.1638 77.216 62.6101 84.9059 51.9398 97.9935C33.9435 119.954 42.7824 150.122 59.4249 172.748C84.9064 207.353 127.668 233.158 175.605 242.918C186.753 245.211 198.219 246.689 208.412 250.978C218.605 255.267 227.443 263.178 227.842 272.569C228.24 281.737 220.356 290.093 210.721 294.825C201.086 299.557 189.858 301.48 178.949 303.55C158.803 307.469 138.338 312.793 122.571 323.81C106.805 334.827 96.6916 352.721 102.345 368.988C110.388 391.984 143.195 401.3 171.464 407.216C278.486 429.694 387.658 452.32 497.945 446.257C529.08 444.556 565.392 437.384 577.336 413.797C585.618 397.529 579.008 378.748 569.93 362.777C558.225 342.295 542.299 323.366 523.188 307.025C513.712 298.966 503.36 291.424 496.592 281.664C489.903 271.903 487.593 259.259 494.919 249.795C497.069 247.059 500.892 244.989 505.032 243.658Z" fill="#F7F7F7"/>
<path d="M820.743 473.362C797.889 504.931 764.365 530.312 725.824 545.78C715.632 549.858 705.2 553.304 694.45 555.905C645 568.139 590.852 564.483 544.109 545.78H552.63C570.546 550.069 589.419 549.718 607.495 545.78C633.932 540.015 658.776 526.445 676.772 508.235C709.022 475.541 721.683 430.754 722.082 387.373C722.161 376.476 721.604 365.226 725.904 354.961C730.204 344.696 740.874 335.555 753.217 336.118C764.922 336.61 774.398 345.68 777.822 355.664C781.246 365.578 779.893 376.265 778.619 386.53C775.832 407.974 773.045 429.418 770.257 450.863C776.867 443.269 783.795 435.395 793.35 430.754C802.906 426.114 815.806 425.481 823.928 431.879C836.748 441.863 829.98 460.565 820.743 473.362Z" fill="#6C63FF"/>
<path d="M813.656 466.964C788.413 501.696 752.819 530.172 711.411 549.296C665.545 570.529 613.308 579.177 561.787 574.748C532.643 572.217 504.056 565.537 477.38 554.991C477.141 555.624 476.982 556.327 476.743 556.959C478.734 556.959 480.724 556.959 482.715 556.959C486.299 556.959 489.165 557.522 492.669 558.155C503.499 560.264 514.726 561.037 525.795 560.616C546.26 559.842 566.486 554.991 584.96 547.186C620.554 532.211 648.265 506.548 666.261 475.822C684.258 445.097 692.778 410.575 694.769 376.194C695.326 366.843 695.087 357.492 695.406 348.141C695.724 338.157 696.839 327.681 702.095 318.751C706.395 311.369 713.561 304.76 722.639 302.018C732.115 299.206 741.989 301.666 749.315 307.432C768.665 322.759 763.648 348 761.021 368.179C757.915 392.084 754.81 415.989 751.704 439.824C751.545 441.019 753.297 441.09 753.934 440.387C761.817 431.317 770.098 421.825 781.645 416.2C791.519 411.419 804.737 409.943 814.691 415.427C835.235 427.028 823.61 453.042 813.656 466.964C812.86 468.088 814.93 469.143 815.726 468.018C824.645 455.573 833.404 437.434 825.361 423.02C816.602 407.201 793.191 407.412 778.221 415.638C767.471 421.544 759.508 430.614 751.863 439.402C752.58 439.613 753.376 439.754 754.093 439.965C756.96 418.169 759.747 396.303 762.613 374.507C765.002 355.945 770.497 334.149 760.224 316.642C752.58 303.776 736.336 294.776 720.011 300.823C702.652 307.221 695.406 323.814 693.654 339.212C692.619 348.844 693.097 358.617 692.858 368.249C692.619 377.46 691.823 386.6 690.628 395.74C688.16 413.88 683.7 431.809 676.852 449.035C663.156 483.557 639.108 515.055 604.15 535.374C583.845 547.186 560.513 555.272 536.386 557.803C523.087 559.209 509.55 558.998 496.332 556.748C492.51 556.116 488.847 554.92 484.945 554.92C482.237 554.92 479.53 554.92 476.743 554.92C475.628 554.92 474.991 556.467 476.106 556.889C523.167 575.521 575.962 582.06 627.004 575.591C676.932 569.264 724.232 549.999 762.693 521.242C783.158 505.915 801.074 487.916 815.567 468.018C816.523 466.893 814.452 465.839 813.656 466.964Z" fill="#6C63FF"/>
<path d="M210.621 580.934C155.039 578.263 106.624 547.608 64.9781 514.984C56.5374 508.375 47.8577 501.204 43.8763 491.853C39.8948 482.501 41.9651 470.338 51.5207 464.994C65.5355 457.26 88.1503 466.752 98.3429 455.292C105.51 447.136 99.7763 435.394 93.9633 426.465C83.4522 410.434 72.9411 394.334 62.43 378.303C52.3966 362.976 42.6022 342.937 54.7855 328.946C62.3503 320.228 75.8874 317.626 88.3096 316.923C105.987 316.009 125.815 318.751 136.724 331.055C147.713 343.43 145.961 360.866 145.802 376.616C145.324 419.504 161.33 462.463 190.554 496.774C219.778 531.085 262.221 556.467 309.043 567.787C266.76 571.021 252.904 577.771 210.621 580.934Z" fill="#6C63FF"/>
<path d="M251.391 579.881C214.284 577.982 179.247 565.959 147.634 549.226C131.31 540.578 115.782 530.734 100.891 520.329C86.7967 510.415 72.3042 500.15 59.8023 488.689C47.7782 477.651 37.7449 461.55 46.1856 446.222C53.6708 432.723 71.3486 433.848 85.7616 433.707C98.343 433.637 113.075 431.458 116.658 418.802C120.799 404.248 107.899 388.991 100.175 377.179C89.4245 360.726 78.5153 344.274 67.8449 327.822C59.3245 314.674 50.4856 299.065 52.3171 283.456C54.3079 266.512 70.7116 257.864 88.1505 255.192C104.315 252.731 122.391 253.083 137.839 258.215C155.199 263.981 165.55 276.636 168.576 292.597C171.523 308.486 169.054 324.869 169.93 340.899C171.682 373.523 180.999 405.724 196.925 435.254C227.343 491.713 282.606 536.148 348.699 558.366C356.821 561.108 365.023 563.428 373.384 565.467C373.463 564.764 373.623 564.061 373.702 563.428C332.454 566.733 292.56 576.787 251.391 579.881C249.878 580.021 249.878 582.13 251.391 581.99C292.56 578.826 332.454 568.842 373.623 565.748C374.897 565.678 375.295 563.991 373.941 563.709C301.956 546.062 239.606 502.4 204.489 444.043C185.936 413.247 174.947 378.936 172.558 344.133C170.647 316.01 180.68 277.269 147.475 260.114C133.858 253.083 117.295 251.466 101.847 252.028C86.6375 252.591 69.1986 255.192 58.5282 265.738C47.3801 276.777 48.4153 292.104 53.3523 305.323C59.4838 321.775 70.7116 336.54 80.506 351.445C86.0005 359.812 91.4949 368.179 96.9097 376.546C102.086 384.491 107.978 392.295 111.8 400.873C115.225 408.537 117.136 418.028 110.526 424.848C105.669 429.911 98.1042 431.176 90.9375 431.528C77.5597 432.161 61.6338 429.629 50.5653 437.856C39.656 445.941 38.6208 460.917 43.8764 471.956C51.043 487.072 67.0486 497.9 80.8245 508.235C94.7597 518.782 109.173 528.906 124.223 538.187C154.721 556.96 188.484 572.639 225.273 579.037C233.952 580.513 242.712 581.498 251.55 581.99C252.984 582.06 252.904 579.951 251.391 579.881Z" fill="#6C63FF"/>
<path d="M631.384 227.631C638.311 225.592 654.635 227.349 661.165 227.631C667.217 227.912 699.228 232.412 714.995 231.498C717.304 231.357 719.454 232.763 719.852 234.802C720.011 235.787 719.693 236.349 719.693 236.349C719.693 236.349 697.556 253.012 693.495 254.137C678.047 258.426 662.837 255.262 655.989 258.637C649.141 262.012 634.728 271.293 631.463 271.293C630.667 271.293 629.552 271.012 628.437 270.66C623.898 269.184 620.315 266.02 618.404 262.082L610.282 245.419L631.384 227.631Z" fill="#0A3B56"/>
<path d="M621.589 249.778C617.21 249.075 563.061 252.942 555.497 252.942C550.161 252.942 528.502 247.317 513.93 244.153C512.258 243.802 510.506 243.52 508.754 243.38C502.384 242.888 496.013 244.083 490.36 246.825C470.532 256.387 431.274 275.792 415.03 268.34C394.486 258.918 412.561 210.053 460.499 208.506C469.656 207.1 488.608 206.186 512.497 207.171C547.534 208.577 593.162 214.131 633.852 228.474C641.019 235.786 625.969 250.481 621.589 249.778Z" fill="#FFC197"/>
<path d="M621.589 249.778C617.21 249.075 563.062 252.942 555.497 252.942C550.162 252.942 528.502 247.318 513.93 244.154C512.258 243.802 510.506 243.521 508.754 243.38C507.002 233.888 506.286 220.178 512.417 207.171C547.454 208.577 593.082 214.132 633.773 228.475C641.019 235.787 625.969 250.481 621.589 249.778Z" fill="#6C63FF"/>
<path d="M439.158 413.458C437.008 414.161 428.408 414.583 416.304 414.794C374.976 415.427 293.276 413.458 293.276 413.458C293.276 413.458 278.943 408.255 288.817 393.912C349.256 372.538 384.134 379.85 400.06 384.49C400.617 384.631 401.254 384.701 401.732 384.631C404.041 384.35 405.634 382.1 404.439 379.991C400.139 372.468 383.975 361.148 375.773 344.906C375.773 344.906 413.995 288.096 429.682 302.018C445.369 315.869 448.076 377.881 452.775 386.67C457.473 395.459 448.554 410.224 439.158 413.458Z" fill="#FFC197"/>
<path d="M327.597 258.567C338.586 297.588 380.391 357.07 384.054 362.132C404.439 347.367 431.593 313.267 441.467 316.009C435.176 301.737 405.475 242.606 381.984 242.396C358.413 242.255 335.321 237.896 327.597 258.567Z" fill="#0A3B56"/>
<path d="M517.274 162.032C530.971 168.219 562.823 179.398 570.387 196.483C542.995 204.147 502.941 181.156 498.96 177.64C494.898 174.125 517.274 162.032 517.274 162.032Z" fill="#FFB380"/>
<path d="M316.29 128.002C281.73 135.526 198.995 182.563 182.352 191.984C174.708 203.655 188.723 205.905 188.723 205.905C188.723 205.905 289.693 169.837 335.799 152.048C349.893 146.424 316.29 128.002 316.29 128.002Z" fill="#FFC197"/>
<path d="M530.732 164.001C530.095 164.563 528.98 165.477 527.626 166.532C526.352 167.516 524.759 168.712 523.087 169.977C517.672 174.055 510.824 179.047 506.285 182.281C505.011 183.195 503.897 183.969 503.1 184.601C502.065 185.305 501.428 185.797 501.428 185.797L468.541 171.735C468.541 171.735 466.789 174.266 464.161 178.274C459.543 185.164 452.137 196.413 445.926 206.608C445.687 206.96 445.448 207.382 445.289 207.733C444.493 208.999 443.776 210.264 443.06 211.46C439.476 217.647 436.609 222.99 435.574 226.154C435.574 226.154 428.567 226.435 418.215 227.209C394.406 228.967 352.76 233.326 335.639 242.466C334.365 240.075 333.489 237.263 333.011 234.24C331.897 227.349 332.772 219.194 334.604 210.757C336.993 199.718 341.134 188.258 345.035 179.047C349.813 167.587 354.113 159.501 354.113 159.501C354.113 159.501 324.81 159.993 312.547 163.157C311.671 163.087 310.715 162.665 309.919 161.962C304.106 157.251 299.487 139.814 299.487 133.276C299.487 132.502 299.567 131.869 299.726 131.448C300.841 131.588 306.176 130.463 313.9 128.635C314.06 128.635 314.139 128.565 314.298 128.565C315.015 128.424 315.732 128.213 316.448 128.073C341.532 122.167 386.682 110.425 394.565 109.019C403.404 107.472 411.845 112.394 426.258 117.878C427.771 118.44 429.363 119.003 430.956 119.636C432.469 120.198 434.061 120.69 435.734 121.182C435.734 121.182 436.53 121.534 437.884 122.096C438.68 122.448 439.715 122.87 440.91 123.432C441.626 123.714 442.422 124.065 443.219 124.417C443.617 124.628 444.095 124.768 444.572 124.979C453.172 128.706 467.108 134.822 481.361 141.08C502.622 150.501 524.759 160.485 530.732 164.001Z" fill="#2A94F4"/>
<path d="M437.406 119.987L426.895 126.455C426.895 126.455 437.565 146.423 441.308 149.025C446.723 149.868 450.545 148.462 450.545 148.462L458.508 135.033L437.406 119.987Z" fill="#FFC197"/>
<path d="M482.715 90.3867C483.432 84.6214 477.619 78.856 477.619 78.856C477.619 78.856 468.86 69.8564 458.747 71.122C448.554 72.3875 431.115 76.2546 424.586 80.7544C418.056 85.2542 422.436 112.886 424.586 116.05C426.736 119.284 439.158 127.58 439.158 127.58L482.715 90.3867Z" fill="#0B4870"/>
<path d="M487.812 119.987C487.812 134.893 482.158 145.65 468.939 145.65C442.582 140.096 437.645 134.19 437.645 119.355C437.645 104.449 433.265 90.4574 463.843 93.0589C475.469 91.0902 485.662 72.4582 487.812 119.987Z" fill="#FFD1AE"/>
<path d="M484.388 88.9104C481.441 93.4102 471.488 100.301 471.488 100.301C471.488 100.301 438.043 102.199 433.663 97.0663C429.284 91.9337 440.91 86.1684 440.91 86.1684L459.065 85.5356L481.202 83.7778L484.388 88.9104Z" fill="#0B4870"/>
<path d="M445.608 98.1207C442.661 101.988 440.511 108.386 440.511 109.019C440.511 109.651 441.945 119.917 441.945 119.917L437.565 118.651C437.565 118.651 420.126 89.7539 437.565 90.3867C455.084 91.0898 445.608 98.1207 445.608 98.1207Z" fill="#0B4870"/>
<path d="M439.218 124.725C441.655 123.645 441.999 119.9 439.986 116.36C437.973 112.82 434.366 110.827 431.929 111.907C429.493 112.987 429.149 116.732 431.162 120.272C433.174 123.812 436.781 125.806 439.218 124.725Z" fill="#FFD1AE"/>
<path d="M182.352 191.984C167.7 194.937 153.526 198.804 153.526 198.804L148.749 208.155C145.404 214.623 144.608 221.936 146.599 228.896L147.395 231.779L172.399 213.92C172.399 213.92 170.089 226.717 172 228.474C175.823 223.764 188.882 205.905 188.882 205.905L182.352 191.984Z" fill="#FFC197"/>
<path d="M566.008 190.156C550.162 176.797 488.688 158.657 488.688 158.657L484.388 171.946C484.388 171.946 518.071 195.71 530.732 200.562C543.314 205.413 587.986 217.155 566.008 190.156Z" fill="#FFC197"/>
<path d="M493.226 159.782C491.952 157.954 489.802 151.556 486.776 148.251C480.485 145.861 477.141 143.47 472.761 142.837C468.382 145.439 460.339 160.344 460.578 162.243C460.817 164.141 475.787 172.93 475.787 172.93L487.971 173L493.226 159.782Z" fill="#FFC197"/>
<path d="M335.241 231.779C378.958 212.584 462.569 205.905 462.569 205.905C462.569 205.905 444.652 264.262 442.662 277.902C422.675 285.284 344.399 293.229 338.825 285.284C333.33 277.339 317.245 248.723 335.241 231.779Z" fill="#0B4870"/>
<path d="M416.304 414.724C374.976 415.356 293.276 413.388 293.276 413.388C293.276 413.388 278.943 408.185 288.817 393.842C349.256 372.468 384.134 379.78 400.06 384.42C400.617 384.561 401.254 384.631 401.732 384.561C407.067 391.873 414.393 405.724 416.304 414.724Z" fill="#6C63FF"/>
<path d="M295.665 391.803C289.852 386.881 281.81 392.646 279.262 391.803C275.837 389.834 266.919 386.459 264.849 387.584C262.699 388.709 262.699 407.13 261.424 411.63C260.15 416.13 249.958 437.925 249.56 442.003C249.162 446.152 249.958 475.4 251.71 475.4C255.532 475.4 261.026 472.377 261.026 472.377C261.026 472.377 268.83 447.206 272.573 445.378C276.315 443.48 300.921 413.598 300.921 413.598C298.93 413.317 296.7 412.403 294.789 411.349C291.206 409.45 287.304 401.716 288.817 398.201L295.665 391.803Z" fill="#0A3B56"/>
<path d="M696.441 211.741C719.09 211.741 737.451 195.529 737.451 175.532C737.451 155.534 719.09 139.322 696.441 139.322C673.793 139.322 655.432 155.534 655.432 175.532C655.432 195.529 673.793 211.741 696.441 211.741Z" fill="white"/>
<path d="M685.771 154.158L685.691 153.877C685.054 151.838 684.576 148.603 684.178 146.213C684.099 145.861 684.099 145.51 684.019 145.229L683.939 144.947L684.656 144.877L684.736 145.158C684.815 145.439 684.815 145.791 684.895 146.143C685.293 148.533 685.771 151.697 686.408 153.736L686.488 154.017L685.771 154.158Z" fill="#0A3B56"/>
<path d="M662.121 169.274L661.882 168.711L662.2 168.641C663.952 168.149 669.287 166.602 674.145 166.391H674.463L674.543 167.024H674.224C669.526 167.305 664.191 168.782 662.439 169.274H662.121Z" fill="#0A3B56"/>
<path d="M668.093 196.132L667.854 195.921C663.714 192.898 658.776 185.375 657.821 182.281L657.741 182L658.378 181.859L658.458 182.141C659.334 185.234 664.271 192.546 668.252 195.499L668.491 195.71L668.093 196.132Z" fill="#0A3B56"/>
<path d="M680.276 194.304L679.639 194.093L679.719 193.812C680.754 191.07 683.143 183.969 683.621 179.398V179.117L684.337 179.188V179.469C683.78 184.109 681.471 191.281 680.356 194.023L680.276 194.304Z" fill="#0A3B56"/>
<path d="M693.336 204.007L693.256 203.374H693.574C696.521 203.234 705.439 201.265 710.536 198.945L710.854 198.804L711.173 199.367L710.854 199.507C705.519 201.968 696.521 203.796 693.654 204.007H693.336Z" fill="#0A3B56"/>
<path d="M714.915 184.742L714.676 184.531C712.526 182.07 704.564 176.446 701.936 174.969L701.617 174.829L702.015 174.336L702.334 174.477C705.041 175.954 713.084 181.649 715.313 184.18L715.552 184.391L714.915 184.742Z" fill="#0A3B56"/>
<path d="M702.971 159.009L702.573 158.517L702.891 158.376C705.758 156.618 712.925 154.298 716.349 153.595L716.667 153.525L716.827 154.087L716.508 154.158C712.845 154.931 705.917 157.251 703.289 158.868L702.971 159.009Z" fill="#0A3B56"/>
<path d="M729.01 179.75L728.373 179.539L728.532 179.258C730.443 175.25 729.647 165.056 728.85 163.509L728.691 163.228L729.328 163.017L729.487 163.298C730.443 165.196 731.08 175.532 729.169 179.539L729.01 179.75Z" fill="#0A3B56"/>
<path d="M732.514 190.297L732.434 189.664H732.753C734.027 189.594 736.416 188.258 737.451 187.203L737.69 186.992L738.247 187.414L738.008 187.625C736.973 188.68 734.504 190.226 732.832 190.297H732.514Z" fill="#0A3B56"/>
<path d="M719.136 208.928L718.578 208.507L718.817 208.296C720.967 206.116 721.843 203.304 721.923 202.108V201.827H722.639V202.108C722.56 203.515 721.604 206.397 719.374 208.718L719.136 208.928Z" fill="#0A3B56"/>
<path d="M695.645 214.342L695.326 214.272C692.221 213.428 689.195 211.671 688.478 210.757L688.239 210.546L688.797 210.194L689.036 210.405C689.673 211.108 692.539 212.866 695.565 213.639L695.884 213.71L695.645 214.342Z" fill="#0A3B56"/>
<path d="M713.801 145.65L713.641 145.369C711.969 143.26 704.325 139.603 697.954 139.182H697.636L697.715 138.549H698.034C704.802 139.041 712.526 142.767 714.199 145.017L714.358 145.299L713.801 145.65Z" fill="#0A3B56"/>
<path d="M668.491 148.814C672.075 147.549 675.578 146.283 677.649 145.932C679.639 145.51 684.417 145.228 684.417 145.228C684.417 145.228 688.239 143.26 692.221 141.854C695.565 140.658 699.626 139.252 699.626 139.252C699.626 139.252 689.195 137.776 682.426 139.674C675.499 141.502 668.491 148.814 668.491 148.814Z" fill="#0A3B56"/>
<path d="M686.01 153.806C686.01 153.806 683.302 155.986 680.515 158.939C677.808 161.892 674.225 166.602 674.225 166.602C674.225 166.602 676.375 169.837 678.843 173.141C681.312 176.446 684.019 179.399 684.019 179.399C684.019 179.399 688.797 178.344 693.017 177.219C697.238 176.094 702.175 174.618 702.175 174.618C702.175 174.618 702.891 170.61 703.051 166.532C703.21 162.525 703.051 158.447 703.051 158.447C703.051 158.447 699.865 157.111 695.008 155.705C690.151 154.439 686.01 153.806 686.01 153.806Z" fill="#0A3B56"/>
<path d="M719.295 144.877C716.508 144.736 713.482 144.877 713.482 144.877C713.482 144.877 714.517 146.353 715.313 148.814C716.11 151.345 716.428 153.806 716.428 153.806C716.428 153.806 719.693 155.564 723.595 158.798C727.497 162.032 729.488 164.282 729.488 164.282C729.488 164.282 733.23 162.525 734.584 159.501C735.938 156.548 719.295 144.877 719.295 144.877Z" fill="#0A3B56"/>
<path d="M661.404 156.688C661.404 156.688 660.688 160.345 661.086 163.438C661.484 166.602 662.36 168.782 662.36 168.782C662.36 168.782 660.926 170.539 660.051 174.758C659.254 178.977 658.776 183.476 658.776 183.476C658.776 183.476 651.689 181.437 651.052 179.398C650.415 177.289 660.369 156.688 660.369 156.688H661.404Z" fill="#0A3B56"/>
<path d="M680.356 193.531C680.356 193.531 683.541 196.765 687.125 199.085C690.708 201.405 694.291 203.585 694.291 203.585C694.291 203.585 693.176 205.694 691.663 207.874C690.15 210.053 689.434 210.475 688.319 210.686C684.736 211.389 674.702 207.663 673.588 206.96C672.473 206.257 671.278 204.218 669.606 201.054C668.332 198.734 667.536 195.288 667.536 195.288C667.536 195.288 670.8 194.937 673.906 194.656C676.932 194.445 680.356 193.531 680.356 193.531Z" fill="#0A3B56"/>
<path d="M728.93 178.625C728.93 178.625 730.443 180.383 731.637 183.547C732.832 186.711 732.832 190.015 732.832 190.015C732.832 190.015 731.637 192.687 728.93 195.71C726.223 198.804 722.241 202.108 722.241 202.108C722.241 202.108 720.33 202.249 716.986 201.405C713.641 200.632 710.695 199.226 710.695 199.226C710.695 199.226 712.367 196.132 713.402 192.476C714.517 188.75 714.915 184.32 714.915 184.32C714.915 184.32 718.817 183.336 722.241 182C725.665 180.664 728.93 178.625 728.93 178.625Z" fill="#0A3B56"/>
<path d="M464.161 178.203C459.543 185.093 452.137 196.343 445.926 206.538L334.604 210.756C336.993 199.718 341.134 188.257 345.035 179.047C382.382 172.648 440.352 169.274 464.161 178.203Z" fill="#B6E7FF"/>
</svg>
